<?xml version="1.0" encoding="utf-8"?>
<!-- Generator: Adobe Illustrator 16.0.0, SVG Export Plug-In . SVG Version: 6.00 Build 0)  -->
<!DOCTYPE svg PUBLIC "-//W3C//DTD SVG 1.1//EN" "http://www.w3.org/Graphics/SVG/1.1/DTD/svg11.dtd">
<svg version="1.1" id="Layer_1" xmlns="http://www.w3.org/2000/svg" xmlns:xlink="http://www.w3.org/1999/xlink" x="0px" y="0px"
	 width="863.647px" height="249.71px" viewBox="0 0 863.647 249.71" enable-background="new 0 0 863.647 249.71"
	 xml:space="preserve">
<g>
	<g>
		<g>
			<polygon fill-rule="evenodd" clip-rule="evenodd" fill="#FFFFFF" points="23.608,130.522 23.01,130.313 22.829,129.353 
				21.856,129.469 21.607,128.57 21.063,128.083 20.051,128.326 19.421,127.997 18.997,127.318 18.664,126.457 17.766,126.592 
				17.036,126.435 16.631,125.652 15.707,125.903 15.307,125.087 14.697,124.696 13.77,125.002 13.127,124.687 12.446,124.468 
				11.884,123.96 11.387,123.301 10.562,123.422 9.984,122.959 9.292,122.77 8.647,122.473 7.974,122.243 7.61,121.382 
				6.782,121.399 6.284,120.874 6.016,120.137 5.444,119.741 4.699,119.436 3.94,119.065 4.075,118.143 3.891,117.442 
				3.794,116.719 3.518,116.077 3.223,115.435 2.261,115.03 1.917,114.392 1.8,113.674 1.455,113.041 1.865,112.121 1.685,111.411 
				0.75,111.04 0.794,110.229 0.127,109.783 -0.399,109.072 0.235,108.347 0.539,107.688 0.5,106.915 1.421,106.454 0.901,105.531 
				1.66,105.012 1.864,104.319 1.814,103.542 1.927,102.813 1.946,102.042 2.475,101.465 2.827,100.826 3.446,100.322 3.369,99.471 
				4.156,99.095 4.09,98.196 5.046,98.002 5.232,97.244 5.683,96.685 6.026,95.995 6.918,95.936 7.167,95.071 8.136,95.239 
				8.571,94.674 9.221,94.214 9.942,93.943 10.654,94.052 11.365,94.879 12.07,94.284 12.765,94.162 13.44,93.986 14.299,94.46 
				14.922,93.999 15.437,93.427 15.845,92.799 16.445,92.467 17.214,92.254 17.642,91.677 17.782,90.897 18.523,90.526 
				18.707,89.807 18.092,89.109 18.739,88.39 18.613,87.685 18.535,86.978 18.718,86.264 18.442,85.568 18.605,84.857 
				18.563,84.153 18.714,83.442 18.418,82.742 18.581,82.031 18.338,81.327 18.42,80.621 18.229,79.915 17.987,79.206 
				17.896,78.494 18.128,77.784 17.837,77.064 18.373,76.367 18.516,75.661 18.551,74.952 18.22,74.217 18.771,73.544 
				18.782,72.834 18.99,72.144 18.408,71.358 18.688,70.661 18.475,69.928 18.722,69.208 18.929,68.469 18.732,67.748 
				18.191,67.083 18.144,66.365 18.656,65.534 18.63,64.788 17.925,64.196 18.201,63.379 17.618,62.772 17.841,61.96 16.947,61.439 
				17.088,60.649 16.683,59.997 16.438,59.301 17.155,58.398 16.507,57.79 15.929,57.143 16.196,56.36 16.188,55.626 15.78,54.912 
				15.975,54.167 15.844,53.42 16.116,52.699 15.927,51.973 16.471,51.297 16.066,50.573 16.005,49.869 16.611,49.141 
				16.331,48.438 16.252,47.729 16.01,47.04 16.077,46.314 16.433,45.537 16.338,44.822 15.357,44.276 15.288,43.568 15.892,42.708 
				15.737,42.007 15.571,41.31 14.927,40.732 14.368,40.139 15.068,39.218 14.768,38.557 14.103,37.993 13.93,37.3 14.217,36.487 
				13.761,35.871 13.945,35.091 13.145,34.557 13.085,33.839 13.468,33.03 12.685,32.467 12.504,31.777 12.954,30.947 
				11.993,30.429 12.265,29.635 12.074,28.943 12.099,28.199 11.356,27.647 11.747,26.803 11.273,26.188 11.546,25.356 
				11.088,24.741 10.376,24.22 10.747,23.329 10.489,22.651 10.032,22.054 9.635,21.439 9.493,20.713 9.086,20.107 9.109,19.284 
				8.504,18.785 8.171,18.142 7.397,17.775 7.666,16.737 6.56,16.627 6.064,15.725 7.104,15.454 7.361,14.724 8.288,14.521 
				8.092,13.595 8.934,13.169 8.667,12.335 8.718,11.628 8.8,10.931 9.665,10.375 8.916,9.508 9.549,8.917 9.801,8.257 9.864,7.532 
				9.87,6.731 10.74,6.417 10.831,5.58 11.347,5.047 12.077,4.81 12.749,4.614 13.462,4.33 14.201,4.322 14.938,4.29 15.676,4.324 
				16.41,4.933 17.148,4.21 17.888,4.238 18.628,4.733 19.37,4.452 20.024,4.726 20.711,4.917 21.289,5.343 21.841,5.787 
				21.832,6.83 22.49,7.168 22.848,7.827 23.789,7.866 24.521,8.133 24.573,9.111 25.182,9.508 25.896,9.809 26.186,10.523 
				26.891,10.849 27.05,11.662 27.923,11.868 28.375,12.437 28.29,13.386 29.308,13.562 29.467,14.32 30.063,14.821 29.837,15.766 
				30.058,16.491 31.089,16.606 31.208,17.393 31.822,17.838 31.941,18.585 32.694,19.055 32.158,19.951 32.318,20.597 
				32.843,21.307 32.608,22.017 32.166,22.674 32.445,23.459 31.894,24.117 32.208,24.889 32.001,25.598 32.144,26.336 
				31.781,27.046 32.02,27.782 31.783,28.507 31.34,29.246 32.326,29.947 31.896,30.692 31.536,31.449 32.271,32.123 32.467,32.832 
				32.12,33.6 31.792,34.377 32.057,35.082 32.747,35.717 32.392,36.51 32.293,37.268 32.338,38.004 32.567,38.706 33.271,39.314 
				32.846,40.143 33.204,40.815 33.98,41.396 33.316,42.287 33.381,43.021 33.777,43.683 34.576,44.252 34.365,45.046 
				34.683,45.722 34.287,46.558 34.759,47.198 34.508,47.995 35.002,48.627 35.15,49.325 35.149,50.049 35.815,50.658 
				35.667,51.409 35.916,52.095 35.721,52.844 35.757,53.559 36.431,54.199 35.594,55.008 36.037,55.678 36.219,56.378 
				36.378,57.082 35.985,57.826 36.082,58.533 36.709,59.21 36.712,59.927 36.694,60.643 36.272,61.375 36.225,62.09 37.02,62.775 
				36.588,63.503 36.32,64.223 37.049,64.917 36.946,65.632 36.185,66.365 36.249,67.075 37.091,67.767 36.856,68.486 
				36.853,69.198 36.329,69.927 36.909,70.622 36.495,71.35 37.22,72.034 37.217,72.745 37.102,73.463 37.178,74.171 36.697,74.915 
				37.085,75.604 37.203,76.309 37.552,76.993 37.441,77.519 37.862,78.127 38.672,77.602 39.348,78.045 40.067,78.346 
				40.804,78.261 41.532,78.165 42.24,77.95 42.924,77.672 43.701,77.835 44.31,77.301 45.008,77.133 45.59,76.611 46.298,76.479 
				47.016,76.331 47.625,75.908 48.634,76.468 49,75.505 49.603,75.105 50.276,74.866 50.951,74.63 51.666,74.478 52.466,74.497 
				53.014,73.984 53.783,73.929 54.209,73.179 54.888,72.941 55.341,72.259 56.305,72.574 56.593,71.581 57.313,71.419 
				57.879,70.965 58.534,70.68 59.521,71.011 60.161,70.691 60.747,70.274 61.238,69.684 61.62,68.894 62.521,69.054 62.933,68.32 
				63.711,68.257 64.37,67.977 65.082,67.792 65.637,67.32 66.294,67.037 66.94,66.731 67.674,66.593 67.997,65.681 68.938,65.936 
				69.267,65.027 70.106,65.096 70.683,64.658 71.521,64.708 72.044,64.154 72.426,63.343 73.078,63.042 73.771,62.812 
				74.494,62.631 75.197,62.412 75.609,61.687 76.395,61.607 77.183,61.528 77.56,60.753 77.938,59.989 78.888,60.173 
				79.144,59.211 80.097,59.395 80.552,58.761 81.075,58.242 81.655,57.815 82.472,57.77 83.104,57.428 83.706,57.035 
				84.512,56.972 84.801,56.076 85.744,56.236 86.239,55.673 86.524,54.764 87.202,54.494 87.759,54.025 88.482,53.834 
				89.32,53.838 89.681,53.037 90.53,53.068 90.885,52.247 91.841,52.475 92.31,51.847 92.827,51.299 93.774,51.518 94.316,51.007 
				94.87,50.52 95.217,49.673 96.27,50.06 96.537,49.08 97.297,48.954 97.683,48.188 98.474,48.112 99.355,48.181 99.803,47.526 
				100.443,47.191 101.209,47.061 101.664,46.424 102.356,46.17 102.657,45.292 103.243,44.875 103.868,44.516 104.794,44.626 
				105.118,43.8 106.083,43.962 106.451,43.208 107.03,42.779 107.529,42.23 108.304,42.092 108.816,41.563 109.545,41.354 
				109.957,40.682 110.642,40.407 111.46,40.321 111.804,39.556 112.157,38.809 112.9,38.614 113.633,38.4 114.39,38.217 
				114.873,37.655 115.13,36.789 116.077,36.859 116.293,35.942 117.334,36.131 117.434,35.069 118.467,35.237 119.103,34.879 
				119.302,33.959 120.101,33.813 120.23,32.812 120.925,32.531 121.41,31.986 121.966,31.531 122.517,31.069 123.532,31.177 
				123.847,30.423 124.504,30.089 125.188,29.784 125.424,28.945 126.382,28.963 126.536,28.03 127.122,27.609 128.01,27.538 
				128.256,26.721 128.879,26.34 129.108,25.511 129.848,25.261 130.569,24.988 131.145,24.551 131.338,23.691 132.041,23.395 
				132.261,22.571 133.383,22.725 133.891,22.212 134.054,21.332 134.789,21.062 135.305,20.56 135.535,19.759 136.481,19.703 
				136.515,18.704 137.04,18.213 137.829,17.988 138.033,17.172 139.074,17.197 139.197,16.301 139.909,15.994 140.668,15.729 
				140.73,14.781 141.483,14.507 141.933,13.982 142.603,13.893 143.24,13.679 143.941,13.113 144.559,13.855 145.26,13.889 
				145.831,14.322 146.656,14.272 147.386,14.457 147.66,15.413 148.436,15.529 149.217,15.594 149.985,15.546 150.587,15.827 
				151.226,16.375 151.859,15.818 152.506,15.71 153.228,16.049 153.984,15.954 154.486,16.475 154.557,17.425 155.429,17.581 
				155.606,18.426 156.292,18.76 156.953,19.121 157.587,19.504 157.739,20.365 158.709,20.405 159.128,20.996 159.085,21.872 
				159.789,22.503 158.845,23.218 159.174,23.952 159.243,24.681 159.812,25.397 159.658,26.131 159.336,26.87 159.088,27.602 
				159.263,28.328 159.868,29.07 159.791,29.809 159.613,30.539 159.625,31.285 159.039,31.946 158.929,32.663 158.91,33.405 
				159.019,34.207 158.428,34.783 158.259,35.506 157.988,36.196 157.567,36.806 156.965,37.284 156.81,38.063 155.899,38.184 
				155.55,38.756 154.929,39.165 154.211,38.8 153.483,39.553 152.782,38.851 152,38.644 151.257,39.073 150.988,39.943 
				150.558,40.554 149.856,40.841 149.122,41.084 148.883,41.933 148.289,42.347 147.216,42.161 146.681,42.642 146.405,43.458 
				145.912,44 145.324,44.418 144.586,44.639 144.188,45.308 143.59,45.713 142.784,45.835 142.296,46.388 141.64,46.71 
				140.891,46.901 140.833,48.059 140.055,48.21 139.678,48.931 139.081,49.337 138.332,49.523 137.401,49.441 137.021,50.164 
				136.458,50.618 135.964,51.178 135.222,51.366 134.818,52.063 134.187,52.417 133.304,52.381 132.853,53.012 132.09,53.158 
				131.598,53.727 130.884,53.948 130.352,54.456 129.695,54.766 129.229,55.382 128.464,55.517 128.132,56.354 127.523,56.744 
				126.483,56.422 126.069,57.132 125.678,57.883 125.017,58.185 124.229,58.273 123.646,58.708 123.162,59.309 122.447,59.52 
				121.526,59.379 120.931,59.793 120.517,60.529 119.971,61.034 118.99,60.834 118.734,61.799 117.879,61.815 117.509,62.584 
				116.768,62.783 115.969,62.903 115.63,63.703 114.715,63.659 114.464,64.579 113.918,65.07 113.054,65.109 112.408,65.459 
				111.8,65.865 111.554,66.775 110.615,66.717 110.245,67.454 109.9,68.226 109.238,68.555 108.674,69.021 107.728,68.95 
				106.972,69.143 106.458,69.678 105.78,69.977 105.433,70.753 104.725,71.005 104.515,71.988 103.767,72.171 103.218,72.656 
				102.612,73.053 102.105,73.607 101.02,73.245 100.769,74.206 99.751,73.933 99.539,74.973 98.729,75.03 97.976,75.177 
				97.454,75.713 97.132,76.596 96.25,76.517 95.584,76.808 95.124,77.461 94.507,77.839 93.526,77.566 93.091,78.27 92.705,79.067 
				92.045,79.369 91.019,78.996 90.572,79.686 90.012,80.172 89.158,80.108 88.697,80.779 88.063,81.127 87.417,81.453 
				86.714,81.67 85.9,81.677 85.695,82.839 84.989,83.049 84.194,83.092 83.469,83.267 82.932,83.799 82.272,84.099 81.54,84.261 
				81.069,84.918 80.26,84.936 79.596,85.228 79.216,86.056 78.279,85.835 77.579,86.062 76.973,86.463 76.505,87.118 
				76.057,87.804 75.45,88.184 74.848,88.571 73.825,88.19 73.545,89.168 72.853,89.393 72.093,89.49 71.479,89.858 70.863,90.221 
				70.14,90.387 69.571,90.835 68.899,91.096 68.352,91.585 67.552,91.609 66.971,92.037 66.616,92.882 65.64,92.58 65.412,93.661 
				64.393,93.278 64.03,94.109 63.229,94.131 62.622,94.509 62.287,95.394 61.538,95.51 60.746,95.548 60.143,95.936 59.768,96.745 
				59.099,97.009 58.163,96.781 57.91,97.815 57.247,98.09 56.438,98.097 55.631,98.108 55.216,98.842 54.369,98.779 54.118,99.816 
				53.457,100.094 52.522,99.871 52.08,100.554 51.64,101.242 50.708,101.024 50.002,101.22 49.29,101.408 48.942,102.262 
				48.302,102.582 47.883,103.305 46.808,102.828 46.502,103.759 45.963,104.263 45.335,104.601 44.71,104.949 43.751,104.686 
				43.297,105.26 42.679,105.609 42.396,106.257 42.181,106.94 41.188,107.162 41.528,108.042 41.552,108.787 41.857,109.478 
				42.189,110.121 42.433,110.822 43.079,111.201 43.381,112.051 44.284,111.908 44.996,112.011 45.559,112.698 46.375,112.362 
				47.061,112.651 47.838,112.475 48.39,113.437 49.072,113.638 49.911,113.378 50.635,113.593 51.071,114.275 51.988,114.396 
				51.884,115.579 52.758,115.829 53.586,115.188 54.291,115.373 54.954,115.835 55.76,115.364 56.392,116.022 57.144,115.907 
				57.768,116.599 58.507,116.559 59.352,115.88 60.062,116.033 60.733,116.416 61.335,117.201 62.051,117.312 62.92,116.54 
				63.614,116.78 64.282,117.166 65.04,117.055 65.645,117.77 66.417,117.577 67.042,118.177 67.832,117.901 68.602,117.735 
				69.173,118.583 69.989,118.196 70.617,118.746 71.335,118.848 72.172,118.384 72.792,118.953 73.476,119.221 74.208,119.26 
				74.947,119.274 75.654,119.432 76.343,119.671 77.155,119.38 77.814,119.746 78.565,119.725 79.15,120.396 79.857,120.551 
				80.563,120.715 81.28,120.833 82.081,120.63 82.742,120.969 83.412,121.278 84.148,121.331 84.699,122.068 85.46,122.032 
				86.158,122.228 86.933,121.742 87.729,122.496 88.467,122.291 89.19,122.266 89.926,121.971 90.626,122.232 91.33,122.664 
				92.048,122.741 92.768,122.53 93.484,122.479 94.199,122.172 94.916,122.393 95.63,122.783 96.349,122.148 97.068,122.116 
				97.786,122.179 98.503,122.262 99.235,122.13 99.94,122.366 100.612,122.787 101.278,123.125 101.967,123.271 102.818,122.701 
				103.426,123.24 104.083,123.535 104.692,123.939 105.443,123.96 106.007,124.447 106.82,124.405 107.468,124.815 
				108.282,124.434 108.935,125.001 109.657,125.256 110.399,125.14 111.132,125.039 111.866,125.235 112.565,124.469 
				113.298,124.599 114.023,124.467 114.77,125.063 115.493,125.153 116.205,125.322 116.974,124.567 117.7,124.747 
				118.421,124.917 119.13,125.121 119.656,125.88 120.565,125.482 120.979,126.309 121.607,126.617 122.129,127.091 
				122.995,127.275 123.72,126.687 124.429,126.963 125.135,127.062 125.803,127.254 126.532,126.828 127.267,127.042 
				128.001,127.09 128.718,126.758 129.454,126.89 130.149,126.324 130.902,126.681 131.6,126.197 132.381,126.876 133.108,126.815 
				133.79,126.099 134.571,126.805 135.285,126.533 136.024,126.696 136.753,126.688 137.476,126.592 138.188,126.033 
				138.918,125.899 139.652,125.953 140.38,126.192 141.094,126.547 141.859,125.893 142.567,126.251 143.321,126.091 
				143.967,126.746 144.651,126.998 145.557,126.222 146.282,126.401 146.837,127.136 147.574,127.233 148.269,127.366 
				148.898,127.728 149.535,128.142 150.219,128.404 150.931,128.52 151.666,128.405 152.369,128.555 153.079,128.635 
				153.815,128.103 154.506,128.553 155.221,128.393 155.917,128.805 156.653,127.973 157.328,128.829 158.072,128.188 
				158.758,128.565 159.429,128.936 160.164,128.723 160.936,128.425 161.626,128.656 162.206,129.27 162.905,129.385 
				163.67,129.37 164.178,129.982 164.675,130.523 165.482,130.534 166.306,130.615 166.709,131.071 167.308,131.419 
				168.022,131.523 168.746,131.196 169.461,131.322 170.16,131.624 170.874,131.645 171.623,131.366 172.283,131.875 
				172.979,132.044 173.697,132.067 174.445,131.933 175.211,131.737 175.918,131.881 176.556,132.337 177.287,132.351 
				177.904,132.867 178.6,133.026 179.333,133.042 180.117,132.856 180.664,133.611 181.396,133.636 182.161,133.54 
				182.913,133.499 183.38,134.536 184.271,133.961 184.816,134.707 185.664,134.286 186.219,135.008 186.862,135.396 
				187.759,134.737 188.248,135.782 189.016,135.644 189.701,135.874 190.47,135.687 191.123,136.081 191.88,135.909 
				192.479,136.685 193.272,136.243 193.997,136.206 194.728,136.062 195.396,136.533 196.14,136.14 196.838,136.279 
				197.537,136.622 198.25,136.852 198.962,136.494 199.667,136.367 200.398,136.685 201.129,136.804 201.766,136.064 
				202.474,136.04 203.209,136.14 203.988,136.385 204.511,136.465 205.073,136.85 205.941,136.932 205.914,137.998 
				206.559,138.347 207.387,138.901 207.036,137.886 207.701,137.232 207.658,136.519 207.074,135.744 207.115,135.034 
				207.931,134.414 207.275,133.628 207.888,132.983 208.378,132.317 207.637,131.544 208.309,130.883 208.021,130.159 
				207.99,129.453 207.747,128.756 208.06,128.043 207.742,127.365 207.681,126.673 207.358,126.027 207.157,125.375 
				207.543,124.547 207.252,123.897 206.645,123.389 206.333,122.777 206.564,121.859 205.79,121.498 205.787,120.691 
				206.018,119.97 205.768,119.299 206.069,118.608 205.425,117.826 205.839,117.145 206.097,116.443 205.65,115.705 
				206.122,115.007 205.539,114.28 205.915,113.571 205.923,112.857 205.511,112.151 206.129,111.421 205.392,110.735 
				205.524,110.019 206.006,109.274 205.573,108.588 205.974,107.84 205.786,107.138 205.258,106.471 205.235,105.758 
				205.026,105.063 204.905,104.361 204.876,103.647 204.643,102.958 204.784,102.222 204.465,101.545 205.226,100.725 
				204.686,100.076 204.52,99.378 204.385,98.676 204.909,97.884 204.026,97.283 204.203,96.539 204.682,95.756 203.951,95.131 
				203.831,94.427 203.541,93.742 204.059,92.96 203.364,92.321 203.682,91.568 203.704,90.848 203.73,90.13 203.181,89.462 
				203.764,88.699 203.653,87.994 203.556,87.288 203.486,86.58 203.119,85.882 203.308,85.162 202.859,84.456 203.599,83.719 
				203.168,82.977 203.516,82.258 202.975,81.496 203.001,80.758 203.193,80.03 202.966,79.277 203.7,78.58 203.806,77.841 
				203.812,77.097 204.023,76.354 203.139,75.618 203.052,74.896 203.787,74.109 203.111,73.441 203.137,72.7 203.313,71.9 
				202.732,71.306 202.898,70.435 202.151,69.984 201.53,69.448 201.917,68.494 200.983,67.991 201.419,67.144 201.298,66.425 
				201.511,65.688 201.046,64.963 200.963,64.224 201.441,63.501 201.594,62.766 201.167,62.026 201.333,61.283 201.278,60.542 
				201.028,59.833 200.42,59.252 200.947,58.275 199.872,57.997 200.08,56.994 199.306,56.665 198.543,56.422 198.064,55.698 
				198.108,54.879 198.312,54.145 197.981,53.456 198.497,52.771 198.071,52.038 198.692,51.396 198.416,50.66 198.71,49.981 
				198.169,49.211 198.773,48.553 198.146,47.808 198.476,47.073 199.249,46.731 199.881,46.32 200.399,45.796 200.96,45.314 
				201.178,44.492 201.542,43.814 202.28,43.511 202.486,42.673 203.381,42.521 203.756,41.85 204.321,41.329 205.051,40.937 
				205.756,41.058 206.461,41.713 207.167,41.46 207.873,41.275 208.579,40.892 209.286,40.941 209.993,41.602 210.701,41.789 
				211.409,41.463 212.118,41.202 212.827,41.72 213.671,40.914 213.83,42.185 214.47,42.521 215.014,43.004 215.852,43.271 
				215.978,44.124 216.573,44.591 217.073,45.144 217.824,45.355 218.338,45.935 219.091,45.939 219.797,45.905 220.451,46.308 
				220.898,46.625 221.378,47.159 222.156,47.54 222.106,48.398 222.901,48.866 222.427,49.8 223.111,50.372 222.824,51.167 
				223.334,51.838 223.051,52.587 223.22,53.313 223.401,54.063 223.347,54.807 223.391,55.577 222.292,56.069 222.512,56.878 
				221.898,57.419 221.978,58.229 222.108,58.918 221.91,59.589 222.339,60.201 222.718,60.839 222.997,61.515 222.739,62.344 
				222.796,63.07 222.996,63.758 223.208,64.444 223.263,65.163 223.551,65.84 223.85,66.523 223.779,67.26 224.142,67.944 
				223.843,68.698 223.941,69.41 223.858,70.135 223.97,70.847 224.345,71.551 224.417,72.272 224.341,72.995 224.368,73.716 
				223.755,74.434 223.841,75.151 223.945,75.87 224.418,76.6 224.346,77.319 223.974,78.027 224.106,78.75 224.25,79.475 
				224.339,80.199 223.641,80.89 223.755,81.615 224.218,82.354 224.343,83.08 224.323,83.799 223.502,84.494 223.576,85.219 
				223.667,85.943 223.648,86.665 224.265,87.389 224.061,88.107 223.765,88.83 223.408,89.56 223.864,90.27 224.264,90.973 
				223.621,91.729 224.274,92.408 223.621,93.186 224.238,93.853 224.312,94.568 223.91,95.457 224.752,95.855 224.742,96.657 
				225.274,97.17 225.237,97.952 225.668,98.531 225.842,99.229 226.796,99.577 226.514,100.5 227.079,101.009 227.233,101.769 
				227.939,102.135 228.25,102.839 229.029,103.016 229.599,103.396 230.296,103.256 231.046,103.287 231.695,102.854 
				232.458,102.943 233.232,103.078 233.883,102.672 234.555,102.357 235.365,102.653 235.884,101.664 236.668,101.837 
				237.403,101.799 238.078,101.5 238.865,101.692 239.441,100.959 240.16,100.857 240.88,100.768 241.691,101.103 242.237,100.201 
				243.049,100.556 243.645,99.865 244.469,100.312 245.22,100.412 245.875,100 246.635,100.166 247.2,99.202 247.979,99.495 
				248.727,99.625 249.415,99.365 250.183,99.685 250.815,99.006 251.554,99.193 252.218,98.547 252.96,98.857 253.674,98.818 
				254.391,98.831 255.097,98.408 255.817,98.445 256.534,99.03 257.247,98.977 257.962,98.896 258.677,98.879 259.385,99.105 
				260.1,99.107 260.829,98.772 261.538,98.938 262.261,98.785 262.974,98.868 263.667,99.362 264.412,98.642 265.105,99.115 
				265.837,99.141 266.534,98.616 267.351,99.483 268.06,99.165 268.731,98.749 269.538,98.985 270.086,98.158 270.76,97.872 
				271.461,97.683 272.173,97.521 272.85,97.236 273.754,97.673 274.493,97.596 275.093,97.056 275.815,96.932 276.433,96.382 
				277.202,96.454 277.862,95.96 278.573,95.797 279.383,96.215 280.006,95.518 280.755,95.572 281.548,95.914 282.274,95.85 
				282.9,95.118 283.741,95.824 284.44,95.583 285.165,95.519 285.848,95.139 286.563,94.998 287.343,95.411 287.977,94.51 
				288.709,94.493 289.487,95.029 290.184,94.625 290.899,94.394 291.634,94.475 292.376,94.844 293.09,94.419 293.82,94.445 
				294.549,94.321 295.278,94.415 296.003,94.549 296.875,94.91 297.413,94.183 297.443,93.209 298.281,92.966 298.681,92.322 
				299.11,91.707 299.388,90.949 300.714,90.873 299.931,90.026 299.993,89.301 300.507,88.566 299.962,87.875 299.557,87.167 
				300.236,86.45 300.128,85.739 299.632,85.034 299.74,84.323 299.898,83.608 300.314,82.867 299.878,82.182 299.841,81.468 
				299.519,80.797 299.748,80.028 299.333,79.39 298.948,78.766 299.074,77.979 298.704,77.355 298.278,76.768 298.275,75.974 
				297.768,75.421 297.277,74.805 297.121,74.073 297.298,73.309 297.404,72.584 297.202,71.87 297.161,71.148 297.371,70.444 
				297.176,69.715 297.953,69.052 297.165,68.285 297.221,67.579 297.271,66.873 297.19,66.172 297.112,65.478 297.248,64.759 
				297.532,63.98 297.319,63.279 297.271,62.519 296.76,61.935 296.197,61.416 296.286,60.509 295.167,60.319 295.202,59.513 
				295.504,58.729 295.474,58.055 294.77,57.4 294.566,56.683 294.579,55.967 294.671,55.26 294.826,54.561 294.897,53.861 
				295.711,53.238 295.186,52.477 295.03,51.759 295.025,51.062 295.879,50.404 295.742,49.689 295.809,48.975 295.381,48.297 
				294.973,47.598 295.26,46.863 294.999,46.141 295.729,45.449 295.044,44.705 295.931,44.035 295.98,43.32 295.862,42.598 
				296.061,41.876 295.798,41.157 295.874,40.423 295.021,39.812 295.631,38.979 294.881,38.432 295.203,37.575 294.797,36.952 
				294.076,36.52 294.212,35.612 293.564,35.177 292.793,34.787 293.133,33.869 292.737,33.257 293.183,32.546 292.994,31.882 
				293.099,31.215 293.4,30.592 293.328,29.855 293.062,29.007 294.085,28.668 294.349,28.03 294.252,27.211 294.475,26.536 
				295.274,26.16 295.282,25.368 295.615,24.748 295.81,24.051 296.218,23.466 297.079,23.532 297.711,23.149 298.47,23.056 
				299.128,22.592 299.677,21.96 300.688,22.133 300.937,21.216 301.379,20.348 302.285,20.875 302.172,21.922 302.482,22.603 
				303.311,22.861 303.493,23.689 304.546,23.632 304.896,24.334 305.488,24.831 306.346,24.569 306.888,25.158 307.494,25.548 
				308.19,25.75 308.995,25.811 309.476,26.407 309.706,27.288 310.745,27.148 311.054,27.881 311.416,28.517 311.627,29.25 
				312.43,29.523 313.221,29.868 313.24,30.703 313.954,31.148 313.513,32.146 314.209,32.625 314.654,33.23 314.638,33.996 
				314.832,34.684 315.431,35.271 315.306,36.043 315.415,36.753 315.182,37.525 316.007,38.102 315.589,38.9 316.261,39.518 
				316.292,40.239 315.667,41.055 316.344,41.681 316.248,42.419 315.856,43.202 316.673,43.789 316.73,44.49 316.775,45.189 
				316.05,45.901 316.87,46.589 316.977,47.293 316.302,47.962 315.998,48.633 316.307,49.349 316.374,50.049 316.491,50.787 
				316.618,51.518 316.132,52.222 316.583,52.958 315.905,53.682 315.953,54.413 316.479,55.125 316.202,55.864 316.163,56.597 
				316.291,57.318 316.176,58.061 316.627,58.747 316.594,59.482 316.288,60.254 316.572,60.952 316.76,61.662 316.524,62.433 
				316.659,63.15 317.481,63.756 317.693,64.457 317.165,65.281 317.65,65.938 317.891,66.635 317.981,67.357 317.977,68.096 
				317.869,68.851 318.305,69.518 318.113,70.285 318.552,70.955 318.414,71.71 318.23,72.468 318.628,73.149 318.732,73.87 
				319.016,74.572 318.614,75.341 318.609,76.068 319.126,76.758 319.046,77.493 318.727,78.231 318.751,78.953 318.671,79.675 
				319.02,80.4 319.307,81.138 318.917,81.85 319.378,82.614 318.651,83.316 318.603,84.078 318.708,84.828 319.524,85.423 
				319.567,86.151 319.341,86.98 320.102,87.497 320.421,88.146 319.995,89.105 320.618,89.639 320.87,90.326 321.381,90.894 
				321.703,91.551 322.32,92.067 322.36,92.865 322.457,93.633 323.109,94.133 323.179,94.907 323.638,95.501 324.084,95.946 
				324.776,96.154 325.4,96.668 326.185,96.724 326.871,97.121 327.578,97.416 327.817,98.088 327.266,98.768 327.902,99.45 
				327.491,100.135 327.529,100.822 327.167,101.506 327.578,102.195 327.291,102.766 327.293,103.542 326.812,104.021 
				326.105,104.277 325.928,105.061 325.269,105.368 324.839,105.911 324.458,106.504 323.889,106.81 323.375,107.458 
				323.489,108.186 323.578,108.915 323.662,109.649 323.262,110.345 323.38,111.087 323.681,111.845 323.63,112.567 
				323.385,113.276 322.782,113.983 323.109,114.725 323.41,115.441 323.237,116.183 323.562,116.865 323.48,117.625 
				324.117,118.164 324.401,118.785 323.979,119.784 324.574,120.294 325.172,120.862 324.886,121.673 325.391,122.312 
				325.005,123.077 325.697,123.747 324.961,124.493 325.638,125.194 325.636,125.907 325.193,126.633 325.911,127.305 
				325.629,128.032 325.843,128.71 325.661,129.481 325.666,130.217 325.428,130.978 325.594,131.689 325.915,132.387 
				326.523,133.056 325.764,133.871 326.166,134.56 326.222,135.288 326.992,135.903 326.761,136.678 326.476,137.486 
				326.66,138.203 327.583,138.702 327.831,139.372 328.042,140.093 327.566,140.98 327.742,141.68 328.098,142.356 
				327.926,143.108 328.251,143.813 327.938,144.544 327.701,145.248 327.828,145.971 327.617,146.66 327.814,147.428 
				328.148,148.27 327.323,148.793 327.016,149.448 326.826,150.146 326.66,150.866 326.234,151.464 326.139,152.245 
				325.249,152.549 325.261,153.422 324.758,153.957 324.507,154.688 323.675,154.945 323.515,155.773 323.095,156.388 
				322.152,156.478 321.941,157.31 321.555,157.98 320.739,158.154 320.451,158.965 319.788,159.564 318.936,158.985 
				318.242,158.608 317.551,159.083 316.859,158.863 316.165,159.4 315.47,159.2 314.773,158.804 314.079,159.545 313.382,159.153 
				312.684,159.243 311.985,159.268 311.284,158.962 310.67,158.938 310.398,158.361 309.821,157.905 309.319,157.402 
				308.629,157.073 308.331,156.395 307.88,155.854 307.306,155.424 307.236,154.545 306.166,154.534 305.744,153.953 
				305.651,153.132 305.496,152.396 304.583,152.129 304.807,151.205 303.881,150.858 303.983,150.02 303.918,149.279 
				303.089,148.812 303.277,147.999 303.117,147.306 302.843,146.631 303.062,145.891 302.901,145.197 303.043,144.497 
				303.151,143.808 302.622,143.019 303.367,142.432 303.045,141.622 302.953,140.836 303.591,140.273 303.301,139.448 
				304.239,138.938 304.271,138.198 304.662,137.533 304.693,136.795 304.097,135.963 304.795,135.335 304.992,134.624 
				304.436,133.839 305.183,133.175 304.853,132.424 304.81,131.697 304.785,130.975 305.194,130.251 305.03,129.525 
				305.227,128.791 304.986,128.073 305.138,127.332 304.303,126.679 304.779,125.903 304.294,125.235 304.813,124.429 
				304.292,123.777 304.552,122.992 304.147,122.329 304.108,121.595 303.999,120.872 303.361,120.288 303.559,119.481 
				303.362,118.78 302.872,118.176 302.816,117.429 302.277,116.855 302.521,115.932 301.904,115.255 301.128,114.959 
				300.37,114.895 299.68,114.715 298.794,115.384 298.511,114.34 297.446,114.408 297.45,113.554 297.718,112.802 297.531,112.133 
				297.144,111.755 296.74,111.853 296.375,112.552 295.466,112.55 295.033,113.189 294.416,113.567 293.618,113.573 
				293.229,114.495 292.559,114.837 291.834,115.022 291.035,114.851 290.277,114.713 289.548,114.627 288.853,114.825 
				288.136,114.817 287.424,114.976 286.704,114.772 285.978,115.231 285.257,115.061 284.53,115.091 283.801,115.146 
				283.085,114.757 282.347,115.22 281.623,115.373 280.909,115.6 280.158,114.873 279.47,115.44 278.725,115.253 278.001,115.333 
				277.268,115.393 276.493,115.367 276.001,116.188 275.09,115.892 274.828,116.989 273.74,116.56 273.197,116.884 
				272.743,117.644 272.073,117.957 271.339,117.875 270.635,117.942 269.929,117.539 269.235,117.613 268.518,118.032 
				267.853,117.433 267.099,118.108 266.4,118.072 265.743,117.514 265.027,117.965 264.315,117.673 263.588,117.857 
				262.877,117.038 262.148,117.406 261.424,117.523 260.692,117.213 259.982,117.695 259.226,117.021 258.506,117.199 
				257.773,117.198 257.064,117.467 256.388,117.96 255.639,117.79 254.992,118.368 254.227,118.133 253.479,118.062 
				252.724,117.996 252.19,118.936 251.469,118.993 250.8,119.262 250.124,119.493 249.147,118.794 248.487,119.129 
				247.783,119.336 247.166,119.767 246.453,119.957 246.126,120.993 245.052,120.428 244.564,121.085 243.861,121.232 
				243.355,121.917 242.718,122.394 241.913,122.113 241.236,122.562 240.496,122.514 239.765,122.293 239.043,122.392 
				238.306,122.692 237.591,122.503 236.912,121.842 236.202,121.621 235.469,121.725 234.741,121.786 234.013,121.73 
				233.298,121.954 232.683,122.632 231.779,122.134 231.149,122.569 231.139,123.537 230.246,123.617 230.097,124.439 
				229.631,124.941 229.252,125.396 228.555,125.938 229.161,126.731 229.003,127.432 228.5,128.117 228.934,128.855 229,129.567 
				228.613,130.283 229.075,130.985 228.856,131.709 229.065,132.408 229.282,133.101 229.175,133.827 229.214,134.541 
				229.234,135.262 229.434,135.952 229.696,136.625 229.093,137.496 229.285,138.196 229.729,138.828 230.537,139.343 
				230.562,140.078 230.471,140.858 230.555,141.596 231.402,142.091 230.883,142.932 231.171,143.597 231.126,144.303 
				231.391,145.002 231.075,145.702 231.029,146.401 231.127,147.113 231.496,147.851 231.14,148.529 231.213,149.242 
				231.32,149.953 231.025,150.641 230.729,151.344 230.732,152.058 230.998,152.751 231.146,153.44 231.079,154.174 
				231.474,154.798 231.327,155.613 231.952,156.115 232.179,156.801 233.022,157.062 233.568,157.703 233.191,158.579 
				233.048,159.29 232.764,160.006 233.441,160.711 232.77,161.436 233.619,162.129 233.555,162.842 233.188,163.564 
				233.231,164.277 232.908,165.001 233.103,165.708 232.951,166.426 233.057,167.136 233.523,167.836 233.467,168.553 
				233.098,169.271 233.341,169.98 233.833,170.694 233.186,171.405 233.029,172.113 233.191,172.828 233.609,173.559 
				233.211,174.255 232.891,174.945 233.516,175.71 233.327,176.413 232.911,177.084 232.768,177.782 233.127,178.559 
				232.878,179.244 232.26,179.847 232.38,180.6 232.562,181.382 232.013,181.975 231.854,182.671 231.798,183.403 231.531,184.068 
				231.218,184.715 231.024,185.41 230.324,185.872 230.352,186.679 229.527,187.045 229.562,187.877 229.577,188.726 
				228.468,188.859 228.393,189.665 228.123,190.353 227.283,190.605 226.948,191.062 226.365,191.079 225.636,191.755 
				224.906,191.79 224.175,191.463 223.442,191.802 222.714,191.309 221.984,191.215 221.252,191.378 220.519,191.179 
				219.787,191.082 219.053,191.589 218.316,191.392 217.58,191.032 216.841,190.906 216.134,191.175 215.231,191.398 
				214.708,190.769 214.517,189.919 213.875,189.51 213.408,188.929 213.285,188.164 213.093,187.445 212.896,186.725 
				212.319,186.171 211.617,185.705 211.585,184.866 210.778,184.55 210.486,183.849 209.815,183.39 209.775,182.584 
				210.095,181.864 209.51,181.146 209.934,180.426 210.162,179.706 209.56,178.986 210.168,178.266 210.219,177.546 
				209.766,176.827 210.366,176.108 209.646,175.389 210.428,174.669 209.717,173.949 210.34,173.229 209.974,172.509 
				210.292,171.787 210.205,171.066 209.846,170.345 209.988,169.623 209.541,168.902 209.535,168.182 210.278,167.461 
				209.732,166.739 209.961,166.017 209.668,165.294 209.997,164.571 210.351,163.85 210.191,163.127 209.595,162.403 
				210.155,161.68 209.538,160.956 210.463,160.231 210.396,159.507 210.41,158.781 210.151,158.055 210.005,157.312 
				209.291,156.964 208.552,157.252 207.844,157.08 207.153,156.728 206.376,157.366 205.686,157.02 204.976,156.899 
				204.298,156.494 203.559,156.653 202.781,157.125 202.119,156.6 201.357,156.902 200.646,156.784 199.959,156.489 
				199.232,156.493 198.566,156.042 197.888,155.689 197.125,155.982 196.472,155.45 195.714,155.696 195.033,155.377 
				194.34,155.153 193.529,155.793 192.797,155.863 192.114,155.556 191.429,155.266 190.738,155.002 190.074,154.523 
				189.32,154.776 188.598,154.772 187.923,154.342 187.138,154.945 186.436,154.777 185.732,154.606 185.012,154.62 
				184.305,154.474 183.6,154.29 182.868,154.498 182.163,154.289 181.466,153.82 180.744,153.81 180.002,154.711 179.302,153.841 
				178.581,153.883 177.866,154.61 177.149,154.301 176.422,153.949 175.712,154.213 175.014,154.602 174.289,154.38 
				173.583,154.132 172.896,153.831 172.192,153.895 171.461,154.133 170.726,154.28 170.056,153.955 169.38,153.708 
				168.714,153.438 168.062,153.122 167.166,153.862 166.658,152.936 165.846,153.245 165.225,152.813 164.535,152.646 
				163.805,152.614 163.177,152.224 162.421,152.27 161.817,151.812 161.175,151.525 160.392,151.567 159.77,151.07 
				159.004,151.062 158.305,150.814 157.537,150.857 156.765,150.958 156.091,150.608 155.385,150.403 154.662,150.289 
				153.921,150.335 153.199,150.258 152.485,150.037 151.745,150.315 151.023,149.414 150.275,149.453 149.56,149.96 
				148.797,149.715 148.082,149.971 147.405,150.278 146.69,150.286 145.974,150.123 145.261,150.576 144.536,150.652 
				143.857,150.074 143.191,149.685 142.507,149.532 141.674,150.272 141.023,149.854 140.435,149.198 139.72,149.174 
				138.973,149.264 138.232,149.306 137.565,149.044 136.807,149.146 136.185,148.711 135.429,148.818 134.722,148.734 
				134.154,148.039 133.529,147.547 132.73,147.913 132.096,147.403 131.289,147.991 130.644,147.46 129.891,147.944 
				129.202,147.811 128.507,147.785 127.787,147.028 127.089,147.449 126.332,147.086 125.671,148.066 124.914,147.717 
				124.149,147.248 123.469,147.999 122.733,147.961 122.01,148.117 121.233,147.392 120.555,148.338 119.822,148.353 
				119.077,148.148 118.347,148.229 117.621,148.434 116.879,148.171 116.154,148.567 115.412,148.061 114.681,148.24 
				113.951,147.916 113.217,148.102 112.494,147.79 111.766,147.763 111.006,148.308 110.305,147.781 109.593,147.545 
				108.846,147.724 108.148,147.4 107.376,147.721 106.615,147.877 106.005,147.037 105.268,147.054 104.526,147.145 
				103.864,146.801 103.079,147.11 102.316,147.292 101.637,147.041 101.068,146.218 100.275,146.556 99.616,146.206 
				98.958,145.854 98.256,145.718 97.487,145.926 96.789,145.775 96.056,145.806 95.328,145.81 94.612,145.75 94.013,145.079 
				93.326,144.865 92.655,144.569 91.956,144.411 91.189,144.636 90.398,145.017 89.826,144.138 89.063,144.36 88.369,144.181 
				87.638,144.235 87.003,143.665 86.221,144.068 85.502,144.068 84.803,143.921 84.088,143.896 83.386,143.774 82.716,143.36 
				82.034,143.016 81.327,142.894 80.56,143.439 79.889,142.878 79.182,142.75 78.428,143.328 77.72,143.249 77.009,143.241 
				76.304,143.036 75.599,142.695 74.882,142.748 74.166,143.217 73.45,142.622 72.738,142.924 72.031,143.143 71.193,143.286 
				70.826,142.422 70.374,141.784 69.703,141.459 68.971,141.293 68.144,141.476 67.666,140.562 66.872,140.767 66.145,140.799 
				65.417,140.967 64.732,140.652 64.023,140.524 63.31,140.458 62.6,140.888 61.881,140.372 61.174,140.866 60.458,140.927 
				59.745,140.297 59.018,140.837 58.344,140.079 57.65,140.011 56.896,140.373 56.184,140.294 55.534,139.954 54.872,139.717 
				54.29,139.299 53.428,139.46 52.817,139.065 52.032,138.907 51.612,138.301 50.887,138.296 50.207,137.677 49.443,137.615 
				48.677,137.477 47.932,137.59 47.2,137.729 46.493,138.121 45.728,137.908 45.031,138.527 44.286,138.772 43.286,138.142 
				43.619,139.062 43.597,139.792 43.444,140.53 44.355,141.168 44.386,141.899 43.775,142.654 43.96,143.369 44.137,144.089 
				43.775,144.81 44.403,145.543 43.901,146.252 43.585,146.962 43.621,147.685 44.112,148.432 43.701,149.133 43.98,149.871 
				44.182,150.604 43.304,151.285 44.119,152.043 43.858,152.754 43.848,153.473 43.698,154.191 43.315,154.918 43.755,155.632 
				43.961,156.341 44.019,157.054 43.608,157.814 44.116,158.479 44.033,159.218 44.458,159.868 44.456,160.598 44.26,161.392 
				45.099,161.893 45.098,162.64 44.725,163.554 45.694,163.934 45.641,164.752 45.924,165.423 46.388,165.999 46.769,166.686 
				46.715,167.439 46.319,168.154 46.543,168.897 46.399,169.614 46.538,170.367 45.848,171.002 46.567,171.811 45.659,172.444 
				46.015,173.192 45.588,173.896 45.953,174.624 46.4,175.337 45.803,176.064 45.6,176.796 45.98,177.495 46.534,178.169 
				46.505,178.886 45.801,179.684 46.693,180.3 46.242,181.081 46.496,181.771 46.603,182.48 46.872,183.163 47.021,183.864 
				46.82,184.627 47.549,185.227 47.397,185.982 47.489,186.695 47.81,187.367 47.812,188.097 47.688,188.848 47.71,189.573 
				48.218,190.217 47.635,191.037 48.149,191.684 48.595,192.345 48.023,193.146 48.501,193.81 48.271,194.555 48.273,195.271 
				48.864,195.944 49.156,196.65 48.303,197.406 48.687,198.11 48.312,198.822 49.009,199.553 49.137,200.285 48.566,200.97 
				48.691,201.703 48.256,202.454 48.8,203.065 48.879,203.82 49.195,204.457 49.968,204.936 50.102,205.662 49.951,206.457 
				50.558,207.053 50.698,207.77 50.726,208.505 51.008,209.201 50.591,209.976 50.779,210.681 50.533,211.415 50.672,212.128 
				50.924,212.843 50.748,213.564 51.334,214.292 51.276,215.017 50.808,215.728 50.368,216.437 50.795,217.17 51.264,217.905 
				50.961,218.618 50.797,219.336 50.261,220.058 51.169,220.774 50.592,221.506 50.495,222.236 50.953,222.926 50.9,223.623 
				50.924,224.31 50.589,224.993 50.694,225.773 51.127,226.342 52.045,226.626 51.732,227.631 52.663,227.998 52.877,228.719 
				53.106,229.43 53.116,230.188 52.972,230.942 53.496,231.643 52.655,232.366 52.701,233.07 52.577,233.765 52.71,234.507 
				52.974,235.306 52.55,235.951 52.748,236.766 51.749,237.219 51.536,237.905 51.715,238.729 51.617,239.463 51.404,240.157 
				51.073,240.811 50.409,241.358 50.899,242.271 50.516,242.909 50.637,243.68 50.27,244.413 49.398,244.697 48.971,245.322 
				48.109,245.395 47.509,245.78 47.263,246.759 46.32,246.591 45.66,246.888 45.328,247.854 44.675,248.198 43.945,248.372 
				43.39,248.921 42.519,248.766 41.844,249.057 41.294,249.615 40.523,249.624 39.698,249.771 39.364,248.743 38.674,248.501 
				37.68,248.954 37.019,248.645 36.643,247.721 36.081,247.229 35.13,247.512 34.592,246.978 34.117,246.372 33.453,246.083 
				32.924,245.599 32.486,245.021 31.908,244.611 31.269,244.235 30.996,243.543 30.205,243.22 30.156,242.403 29.459,241.956 
				29.791,241.018 28.873,240.605 28.907,239.834 28.402,239.243 28.269,238.53 28.093,237.83 27.662,237.17 27.927,236.394 
				27.874,235.677 28.203,234.962 28.012,234.248 27.694,233.48 28.396,232.878 28.119,232.075 28.291,231.369 28.872,230.809 
				28.989,230.085 29.427,229.486 30.047,228.978 30.357,228.327 30.254,227.498 30.651,226.877 30.909,226.195 31.38,225.571 
				31.079,224.736 31.592,224.091 31.093,223.303 31.505,222.602 31.343,221.882 31.112,221.194 31.301,220.394 30.612,219.875 
				30.21,219.293 30.42,218.331 29.581,217.845 29.914,217.034 29.618,216.234 30.192,215.521 30.52,214.75 29.583,214.018 
				29.68,213.271 30.234,212.503 30.241,211.787 30.162,211.076 29.484,210.37 29.988,209.643 30.056,208.925 29.586,208.199 
				29.535,207.477 29.596,206.756 30.036,206.042 29.799,205.317 29.861,204.597 29.622,203.877 29.983,203.15 29.759,202.435 
				29.509,201.728 29.31,201.025 30.105,200.227 29.133,199.615 29.478,198.841 28.872,198.224 29.221,197.42 29.478,196.604 
				28.802,196.037 28.856,195.255 28.506,194.604 27.71,194.153 27.551,193.399 27.343,192.676 27.715,191.849 26.886,191.224 
				27.529,190.424 27.365,189.706 26.842,188.975 27.079,188.239 27.575,187.528 27.164,186.775 26.977,186.031 27.575,185.332 
				27.59,184.597 27.23,183.851 27.042,183.121 27.521,182.389 27.633,181.646 27.692,180.896 27.397,180.184 27.051,179.502 
				27.338,178.672 27.05,177.971 26.292,177.478 26.606,176.511 26.131,175.902 25.218,175.625 25.068,174.885 24.922,174.299 
				25.085,173.591 25.059,172.871 25.447,172.162 25.726,171.443 25.677,170.718 25.039,170.002 25.531,169.271 25.037,168.565 
				25.227,167.837 25.467,167.102 25.265,166.39 25.686,165.635 25.594,164.914 24.948,164.244 24.735,163.54 24.892,162.8 
				25.406,162.017 24.771,161.36 25.207,160.581 25.048,159.871 24.325,159.232 24.098,158.534 24.842,157.708 23.88,157.105 
				24.014,156.358 24.533,155.559 23.995,154.901 24.424,154.114 23.563,153.499 23.553,152.771 23.612,152.033 23.162,151.36 
				23.5,150.589 23.421,149.87 23.723,149.109 23.553,148.4 23.2,147.712 23.196,146.985 23.438,146.239 23.475,145.515 
				22.849,144.837 22.449,144.136 22.426,143.408 22.778,142.667 22.702,141.945 23.167,141.214 22.384,140.499 22.314,139.771 
				22.872,139.053 22.642,138.323 22.445,137.588 22.915,136.888 23.331,136.197 22.685,135.415 22.969,134.716 23.432,134.046 
				23.381,133.312 23.025,132.522 23.715,131.908 23.46,131.122 			"/>
		</g>
		<g>
			<polygon fill-rule="evenodd" clip-rule="evenodd" fill="#FFFFFF" points="717.873,65.635 718.837,65.499 719.223,66.335 
				719.789,66.8 720.523,66.913 721.392,66.733 721.922,67.275 722.383,67.978 722.973,68.408 723.791,68.314 724.388,68.733 
				725.027,69.049 725.607,69.524 726.378,69.513 727.158,69.452 727.674,70.128 728.488,69.936 729.148,70.202 729.745,70.695 
				730.377,71.105 731.125,71.074 731.897,70.889 732.596,71.006 733.354,70.745 734.016,71.05 734.653,71.661 735.413,71.189 
				736.067,72.033 736.794,71.93 737.513,71.609 738.233,71.947 738.932,71.548 739.628,71.382 740.311,71.131 741.053,71.336 
				741.761,71.318 742.459,70.773 743.178,71.106 743.881,71.262 744.521,71.727 745.315,71.342 746,71.55 746.646,71.887 
				747.21,72.446 747.957,72.429 748.738,72.328 749.338,72.766 750.1,72.717 750.613,73.447 751.248,73.835 752.011,73.763 
				752.844,73.253 753.398,74.166 754.102,74.431 754.855,74.016 755.572,74.201 756.261,73.806 757.003,74.079 757.651,73.556 
				758.43,74.025 759.021,73.188 759.75,73.27 760.48,73.365 761.173,73.168 761.882,73.079 762.609,73.304 763.312,73.014 
				764.025,73.121 764.718,73.359 765.464,73.15 766.217,73.107 766.899,73.389 767.358,74.187 768.18,74.089 768.673,74.656 
				769.3,74.984 770.148,75.086 770.129,76.157 770.981,76.608 771.847,75.871 772.578,75.929 773.364,76.139 774.105,75.907 
				774.937,76.187 775.649,76.22 776.303,75.732 777.041,76.209 777.722,75.362 778.428,76.184 779.166,75.377 779.847,75.905 
				780.541,76.063 781.231,76.224 782.002,75.86 782.746,75.758 783.287,76.733 784.052,76.519 784.718,76.794 785.458,76.741 
				786.201,76.69 786.73,77.537 787.575,77.062 788.286,77.144 788.948,77.434 789.635,77.618 790.219,78.292 790.965,78.213 
				791.758,77.844 792.44,78.043 793.081,78.564 793.854,78.103 794.541,78.298 795.252,78.201 795.932,79.005 796.65,78.497 
				797.386,79.082 797.848,78.906 798.368,79.24 798.778,80.007 799.673,79.999 800.312,79.484 801.121,79.625 801.946,79.601 
				802.452,78.991 803.146,78.77 803.814,78.585 804.541,77.87 805.198,78.507 805.897,78.833 806.498,79.348 806.903,79.862 
				806.999,80.913 807.911,80.773 808.556,81.098 809.302,80.741 809.976,80.93 810.662,80.808 811.416,81.193 812.07,80.774 
				812.768,80.658 813.549,80.961 814.225,80.756 814.862,80.223 815.618,80.207 816.365,80.353 817.084,80.583 817.822,80.596 
				818.525,80.826 819.254,80.939 819.833,81.545 820.612,81.516 821.324,81.711 821.92,82.236 822.722,82.192 823.438,82.384 
				824.177,82.497 824.954,82.42 825.63,82.722 826.388,82.516 827.056,83.164 827.806,83.379 828.537,83.451 829.245,83.042 
				829.961,82.828 830.703,83.324 831.422,83.354 832.137,82.794 832.865,82.783 833.591,82.839 834.319,82.894 834.957,83.549 
				835.744,83.204 836.365,83.701 837.102,83.721 837.771,83.984 838.646,83.783 838.915,84.891 839.954,84.501 840.521,84.933 
				841.138,85.349 841.744,86.008 842.528,85.952 843.321,85.47 844.033,85.796 844.768,85.92 845.499,85.573 846.266,86.213 
				846.963,85.442 847.699,85.382 848.471,85.812 849.229,86.081 849.938,85.505 850.675,85.425 851.422,85.945 852.166,85.337 
				852.929,85.208 853.586,85.867 854.243,86.205 854.918,86.378 855.761,86.084 856.553,86.119 856.794,87.222 857.58,87.284 
				858.009,87.876 858.415,88.447 859.053,88.811 859.369,89.449 859.635,90.103 860.317,90.541 861.064,91 860.619,91.966 
				861.479,92.416 861.135,93.299 861.294,94.001 861.891,94.571 861.936,95.314 862.428,95.916 862.499,96.653 863.184,97.167 
				862.913,98.046 863.625,98.513 863.248,99.328 863.63,100.059 863.059,100.594 862.816,101.264 862.463,101.885 862.354,102.646 
				862.148,103.369 861.8,104.016 860.665,104.073 860.82,105.104 859.854,105.206 859.33,105.668 858.837,106.157 858.504,106.845 
				857.74,107.009 857.312,107.606 856.981,108.394 855.983,108.118 855.484,108.654 855.09,109.444 854.372,109.607 
				853.688,109.812 852.966,109.919 852.328,110.237 851.824,110.966 851.129,111.149 850.376,111.152 849.571,110.942 
				848.82,111.02 848.41,112.036 847.492,111.684 846.963,112.288 846.421,112.826 845.561,112.733 845.151,113.499 844.197,113.29 
				843.782,114.017 843.312,114.636 842.221,114.259 841.862,115.053 841.027,115.099 840.55,115.702 840.087,116.328 
				839.127,116.185 838.865,117.129 838.118,117.312 837.299,117.369 836.757,117.876 836.119,118.221 835.74,119.039 
				834.911,119.034 834.132,119.087 833.844,120.178 833.22,120.545 832.419,120.519 831.896,121.107 831.039,120.954 
				830.304,121.064 829.598,121.24 829.269,122.269 828.342,121.947 827.732,122.342 827.265,123.06 826.507,123.119 
				825.657,122.967 824.974,123.196 824.488,123.876 823.751,123.983 823.378,124.931 822.71,125.198 821.902,125.143 
				821.279,125.517 820.506,125.531 819.921,125.983 819.286,126.323 818.73,126.848 818.037,127.058 817.241,127.036 
				816.637,127.459 815.747,127.214 815.379,128.177 814.545,128.075 813.863,128.334 813.396,129.084 812.541,128.804 
				811.871,128.995 811.139,129.251 810.415,129.5 809.69,128.854 808.955,128.733 808.238,129.023 807.553,129.486 
				806.853,129.634 806.059,129.206 805.282,129.076 804.6,129.406 803.888,129.591 803.16,129.753 802.433,129.938 
				802.058,130.878 801.259,130.904 800.661,131.325 800.277,132.04 799.547,132.258 798.896,132.61 798.147,132.89 797.855,133.61 
				797.112,133.569 796.576,134.294 795.687,133.843 795.166,134.6 794.536,134.997 793.729,134.834 793.23,135.623 792.27,135.014 
				791.552,135.146 790.914,135.512 790.314,135.981 789.559,136.003 789.012,136.618 788.459,137.204 787.593,136.926 
				786.897,137.122 786.28,137.532 785.514,137.533 784.951,138.088 784.229,138.21 783.703,138.859 782.826,138.573 
				782.109,138.711 781.49,139.111 781.057,139.998 780.335,140.122 779.515,139.994 778.785,140.101 778.319,140.904 
				777.392,140.484 776.813,140.991 776.288,141.644 775.382,141.272 774.758,141.658 774.207,142.246 773.558,142.569 
				772.878,142.81 771.961,142.379 771.343,142.787 770.908,143.729 769.97,143.216 769.51,144.098 768.636,143.757 
				767.967,144.022 767.467,144.82 766.701,144.792 766.082,145.229 765.352,145.312 764.457,144.825 764.017,145.887 
				763.206,145.672 762.385,145.401 761.888,146.315 761.067,146.022 760.511,146.76 759.646,146.255 759.118,147.152 
				758.383,147.18 757.683,147.357 756.851,146.893 756.188,147.244 755.505,147.503 754.76,147.421 754.021,147.366 
				753.458,148.334 752.619,147.688 751.89,147.682 751.325,148.566 750.577,148.454 749.956,148.99 749.112,148.438 
				748.497,148.99 747.83,149.286 747.022,148.948 746.397,149.423 745.676,149.482 745.014,149.785 744.21,149.526 
				743.588,149.981 742.841,149.957 742.221,150.413 741.523,150.578 740.954,151.186 740.048,150.634 739.575,151.555 
				738.828,151.55 738.2,151.936 737.319,151.532 736.738,152.063 736.079,152.347 735.463,152.754 734.524,152.245 
				734.039,153.016 733.506,153.63 732.655,153.402 731.873,153.365 731.414,154.155 730.801,154.542 729.846,154.104 
				729.41,154.91 728.631,154.938 728.096,155.598 727.164,155.145 726.644,155.896 725.883,155.91 725.155,156.009 
				724.457,156.218 723.748,156.385 723.185,157.165 722.414,157.084 721.711,157.285 720.858,156.83 720.167,157.085 
				719.519,157.518 718.929,158.177 718.062,157.713 717.453,158.268 716.654,158.118 716.013,158.526 715.371,158.903 
				714.738,159.286 713.964,159.276 713.395,159.796 712.51,159.585 711.818,159.847 711.146,160.151 710.495,160.504 
				709.923,160.983 709.346,161.375 708.731,161.737 708.082,162.155 707.314,161.562 706.61,162.155 705.936,161.781 
				705.291,161.468 704.481,161.743 703.941,161.136 703.248,160.977 702.649,160.59 702.065,160.18 701.406,159.929 
				700.716,159.725 699.95,159.653 699.261,159.439 698.623,159.136 698.01,158.797 697.435,158.241 697.265,157.443 
				697.264,156.701 697.874,155.959 697.309,155.222 697.807,154.483 697.411,153.744 697.412,153.003 697.559,152.259 
				697.466,151.514 697.422,150.766 697.828,150.021 697.534,149.272 697.467,148.496 697.78,147.749 698.771,147.813 
				699.23,147.271 699.934,147.004 700.201,146.239 700.426,145.425 700.921,144.927 701.855,144.925 702.119,144.159 
				702.515,143.536 703.261,143.311 703.803,142.859 704.434,142.505 704.69,141.726 705.732,141.828 705.966,140.963 
				706.747,140.982 707.395,140.644 708.201,140.827 708.651,139.852 709.534,140.286 710.166,139.9 710.698,139.188 
				711.39,138.996 712.202,139.208 712.915,139.084 713.636,138.986 714.326,138.794 715.031,138.646 715.741,138.516 
				716.206,137.576 717.064,137.936 717.817,137.943 718.312,137.102 719.196,137.544 719.775,136.979 720.311,136.268 
				721.056,136.25 721.915,136.611 722.511,136.096 723.082,135.505 724.014,136.104 724.548,135.393 725.353,135.572 
				725.832,134.679 726.763,135.276 727.326,134.664 728.091,134.711 728.688,134.203 729.47,134.307 729.96,133.446 
				730.854,133.915 731.409,133.272 732.078,133.004 732.842,133.042 733.499,132.729 734.32,132.958 734.903,132.405 
				735.685,132.498 736.119,131.463 736.79,131.195 737.642,131.517 738.285,131.161 739.021,131.106 739.685,130.814 
				740.349,130.526 741.09,130.485 741.868,130.564 742.326,129.613 743.103,129.685 743.87,129.723 744.489,129.289 
				745.121,128.898 745.87,128.878 746.572,128.71 747.292,128.597 748.041,128.569 748.48,127.579 749.231,127.562 
				749.917,127.341 750.559,126.985 751.429,127.331 752.065,126.958 752.589,126.241 753.319,126.153 754.021,125.987 
				754.633,125.536 755.552,126.022 756.044,125.215 756.691,124.882 757.392,124.703 758.287,125.104 758.898,124.658 
				759.405,123.909 760.224,124.086 760.921,123.906 761.479,123.313 762.387,123.759 763.1,123.632 763.774,123.387 
				764.362,122.882 765.042,122.652 765.644,122.188 766.351,122.041 767.127,122.1 767.862,122.039 768.281,121.028 
				768.99,120.887 769.798,121.042 770.578,121.114 771.058,120.284 771.952,120.697 772.62,120.437 773.302,120.212 
				773.823,119.512 774.424,119.05 775.302,119.409 775.788,118.609 776.655,118.932 777.121,118.077 777.991,118.404 
				778.729,118.344 779.162,117.398 779.878,117.271 780.677,117.387 781.191,116.687 782.027,116.902 782.634,116.464 
				783.254,116.068 783.961,115.916 784.564,115.475 785.392,115.648 786.194,115.755 786.719,115.097 787.554,115.281 
				788.2,114.96 788.774,114.442 789.505,114.343 790.027,113.692 790.848,113.829 791.521,113.575 792.199,113.335 
				792.631,112.466 793.441,112.561 794.046,112.136 794.709,111.86 795.544,112.005 796.168,111.63 796.741,111.129 
				797.517,111.12 798.16,110.79 798.646,110.091 799.326,109.85 799.987,109.566 800.827,109.694 801.541,109.524 801.861,108.474 
				802.761,108.726 803.472,108.552 804.14,108.279 804.675,107.717 805.151,107.031 805.884,106.898 806.801,107.151 
				807.163,106.231 807.983,106.274 808.385,105.453 809.356,105.798 809.721,104.902 810.685,105.218 811.164,104.561 
				811.949,104.509 812.488,103.964 813.382,103.585 812.556,103.044 811.648,103.396 810.927,103.194 810.313,102.764 
				809.869,102.036 808.926,102.238 808.262,101.915 807.73,101.375 807.465,100.403 806.513,100.591 806.049,99.933 805.37,99.663 
				804.643,99.54 804.069,98.877 803.227,99.515 802.551,98.771 801.778,98.68 801.116,99.2 800.401,99.262 799.698,99.519 
				798.984,99.677 798.243,99.151 797.523,98.902 796.819,99.897 796.098,99.565 795.379,99.474 794.666,99.31 793.926,99.797 
				793.223,99.448 792.51,99.321 791.798,99.231 791.084,99.153 790.389,98.883 789.668,98.897 788.984,98.558 788.172,99.356 
				787.566,98.384 786.831,98.489 786.151,98.17 785.401,98.378 784.733,97.974 784.013,97.968 783.268,98.109 782.521,98.26 
				781.845,97.933 781.141,97.789 780.463,97.464 779.746,97.403 779.019,97.418 778.347,97.045 777.513,97.832 776.87,97.234 
				776.17,97.054 775.388,97.533 774.741,96.901 774.036,96.744 773.264,97.226 772.614,96.512 771.865,96.823 771.173,96.493 
				770.474,96.192 769.705,96.949 769.034,96.076 768.295,96.495 767.575,96.632 766.867,96.07 766.145,96.456 765.432,96.69 
				764.722,96.897 764.01,95.97 763.28,96.692 762.614,96.132 761.906,96.172 761.126,96.63 760.436,96.417 759.782,96.047 
				759.094,95.886 758.37,95.894 757.781,95.281 757.004,95.528 756.39,95.021 755.742,94.657 755.051,94.487 754.275,94.751 
				753.516,94.994 752.898,94.364 752.207,94.136 751.437,94.708 750.776,93.994 750.042,94.721 749.352,94.767 748.664,94.811 
				747.902,94.205 747.153,94.082 746.496,94.404 745.787,94.339 745.098,94.547 744.391,94.708 743.693,94.417 742.999,94.327 
				742.283,94.411 741.525,94.699 740.869,94.29 740.066,94.674 739.394,94.38 738.775,93.886 738.054,93.836 737.479,93.232 
				736.604,93.729 735.926,93.509 735.217,93.4 734.527,93.228 733.899,92.832 733.353,92.117 732.517,92.519 731.843,92.291 
				731.146,92.17 730.504,91.759 729.742,92.023 729.145,91.182 728.364,91.522 727.627,91.593 726.906,91.542 726.295,90.768 
				725.501,91.201 724.77,91.208 724.073,90.994 723.393,90.684 722.618,90.953 721.992,90.315 721.313,90.012 720.604,89.89 
				719.762,90.49 719.202,89.545 718.355,90.136 717.753,89.461 716.933,89.867 716.246,89.616 715.578,89.288 714.967,88.727 
				714.197,88.85 713.463,88.812 712.789,88.537 711.99,88.724 711.482,87.86 710.662,88.096 710.122,87.403 709.459,87.131 
				708.52,87.673 707.918,87.217 707.307,86.794 706.72,86.304 705.792,86.776 705.263,86.128 704.59,85.881 703.738,86.099 
				703.092,85.771 702.418,85.514 702.021,84.6 701.085,84.955 700.53,84.429 700.066,83.73 699.396,83.475 698.688,83.293 
				698.036,82.991 697.258,82.909 696.986,81.958 696.286,81.74 695.545,81.566 695.162,80.867 694.438,80.651 694.121,79.899 
				693.293,79.79 692.571,79.521 692.188,78.874 691.752,78.293 691.02,77.999 690.994,77.06 689.93,77.024 690.13,75.948 
				689.707,75.386 689.357,74.771 688.752,74.323 688.453,73.672 687.705,73.276 687.601,72.521 687.436,71.809 686.898,71.271 
				686.287,70.749 686.48,69.895 686.266,69.209 686.163,68.536 685.611,67.896 686.143,67.185 685.857,66.489 685.735,65.788 
				686.193,65.085 685.637,64.376 685.354,63.664 685.87,62.97 685.55,62.241 685.449,61.499 686.454,60.869 686.305,60.134 
				686.22,59.391 686.523,58.718 686.777,58.046 687.197,57.441 687.139,56.665 687.688,56.14 688.046,55.546 688.206,54.824 
				688.396,54.083 688.521,53.24 689.525,53.167 689.668,52.279 690.135,51.691 691.102,51.738 691.751,51.425 692.248,50.886 
				692.817,50.443 693.199,49.648 693.966,49.542 694.824,49.648 695.27,48.906 695.907,48.56 696.724,48.621 697.236,47.957 
				697.861,47.607 698.681,47.735 699.381,47.569 700.009,47.227 700.429,46.387 701.264,46.541 701.813,46.018 702.449,45.7 
				703.08,45.371 704.042,45.8 704.738,45.614 705.307,45.14 705.876,44.668 706.614,44.578 707.315,44.401 707.701,43.526 
				708.487,43.541 708.996,42.944 709.708,42.789 710.272,42.316 711.017,42.233 711.657,41.925 712.371,41.772 713.14,41.735 
				713.467,40.759 714.188,40.623 714.884,40.43 715.649,40.384 716.035,39.539 716.614,39.105 717.402,39.104 718.26,39.245 
				718.935,39.005 719.203,37.928 719.978,37.895 720.426,37.19 721.415,37.603 721.704,36.57 722.667,36.924 723.145,36.254 
				723.886,36.127 724.694,36.142 725.079,35.27 725.666,34.818 726.672,35.256 726.984,34.222 727.738,34.127 728.507,34.065 
				728.915,33.227 729.743,33.295 730.332,32.847 731.255,33.122 731.628,32.202 732.237,31.796 732.976,31.673 733.553,31.195 
				734.475,31.479 735.088,31.082 735.738,30.764 736.234,30.108 737.167,30.419 737.674,29.785 738.205,29.205 739.001,29.213 
				739.807,29.242 740.139,28.219 740.927,28.211 741.582,27.906 742.395,27.949 742.713,26.897 743.446,26.768 744.281,26.859 
				745.092,26.897 745.668,26.419 746.147,25.727 747.003,25.862 747.714,25.677 748.007,24.583 748.977,24.963 749.314,23.969 
				750.035,23.807 750.677,23.473 751.368,23.248 752.275,23.484 752.675,22.633 753.331,22.33 753.883,21.811 754.601,21.636 
				755.548,21.945 756.231,21.694 756.809,21.227 757.291,20.567 758.163,20.704 758.692,20.142 759.396,19.933 760.003,19.53 
				760.547,19.001 761.344,18.976 761.896,18.465 762.507,18.074 763.237,17.913 763.715,17.264 764.321,16.863 765.09,16.771 
				765.662,16.31 766.353,16.07 766.98,15.715 767.587,15.318 768.077,14.713 768.728,14.398 769.695,14.643 769.902,13.552 
				770.727,13.538 771.164,12.862 772.227,13.237 772.572,12.411 773.391,12.366 774.095,12.128 774.196,10.939 774.933,10.758 
				775.885,10.898 776.098,9.916 776.861,9.761 777.241,9.047 778.252,9.235 778.693,8.61 779.26,8.164 779.941,7.871 
				780.495,7.405 780.698,6.492 781.271,6.063 781.963,5.778 782.509,5.309 783.048,4.836 783.884,4.705 784.512,4.324 
				784.873,3.645 785.021,2.744 785.935,2.667 786.179,1.883 786.827,1.518 787.404,1.075 787.678,0.337 788.275,-0.224 
				789.096,0.364 789.819,0.21 790.543,-0.026 791.268,0.127 791.986,-0.05 792.707,0.266 793.43,0.101 794.154,0.231 
				794.882,-0.413 795.604,-0.128 796.332,-0.493 797.065,-0.428 797.648,0.338 798.443,0.403 798.784,1.072 799.12,1.746 
				799.443,2.432 800.386,2.581 800.947,3.063 800.826,4.143 801.987,4.106 801.944,5.123 802.542,5.582 802.96,6.195 
				803.688,6.529 804.141,7.11 804.72,7.584 805.238,8.115 805.836,8.571 805.891,9.51 806.363,10.053 806.475,10.658 
				806.564,11.344 806.283,11.986 806.083,12.644 806.152,13.412 806.009,14.115 805.266,14.553 805.395,15.37 805.126,16.014 
				804.529,16.507 804.369,17.199 804.343,17.955 803.613,18.396 803.562,19.122 802.808,19.472 802.707,20.387 801.942,20.449 
				801.194,20.147 800.629,20.849 800.239,21.133 799.178,21.178 799.06,22.032 798.266,22.256 797.842,22.838 797.719,23.78 
				797.183,24.279 796.415,24.483 795.784,24.843 795.412,25.571 794.508,25.52 793.966,26.002 793.594,26.78 792.815,26.884 
				792.252,27.354 791.528,27.532 790.705,27.504 789.992,27.679 789.665,28.627 789.051,29.009 788.309,29.127 787.636,29.388 
				787.129,29.991 786.498,30.337 785.846,30.637 784.946,30.438 784.61,31.369 783.902,31.552 782.979,31.341 782.629,32.205 
				781.982,32.511 781.014,32.282 780.747,33.228 779.944,33.304 779.446,33.854 778.934,34.37 778.423,34.88 777.633,34.941 
				777.244,35.683 776.264,35.318 775.634,35.607 775.296,36.506 774.752,36.993 773.882,36.789 773.349,37.293 772.566,37.3 
				771.963,37.672 771.455,38.201 770.61,38.187 770.058,38.658 769.778,39.456 769.321,39.986 768.447,40.104 768.068,40.667 
				767.409,40.88 766.877,41.429 766.29,41.955 765.562,42.021 764.938,42.42 764.155,42.324 763.501,42.664 762.696,42.522 
				761.906,42.442 761.34,43.052 760.706,43.447 760.054,43.778 759.287,43.78 758.615,44.057 757.995,44.475 757.138,44.246 
				756.467,44.53 755.762,44.722 755.045,44.884 754.379,45.177 753.807,45.708 753.04,45.75 752.408,46.127 751.88,46.747 
				751.176,46.943 750.557,47.34 749.791,47.398 748.99,47.375 748.479,48.018 747.874,48.446 747.308,48.954 746.338,48.567 
				746.065,49.721 745.308,49.805 744.461,49.702 743.762,49.921 743.061,50.134 742.729,51.131 741.848,50.965 741.352,51.609 
				740.713,51.955 739.793,51.716 739.211,52.181 738.635,52.653 738.141,53.291 737.191,53.004 736.838,53.927 736,53.868 
				735.613,54.724 734.538,54.186 734.154,55.044 733.273,54.901 732.59,55.158 732.055,55.711 731.574,56.374 731.018,56.886 
				729.989,56.447 729.567,57.23 728.711,57.119 728.103,57.498 727.818,58.539 727.013,58.531 726.415,58.963 725.537,58.729 
				725.069,59.496 724.402,59.795 723.516,59.34 722.947,59.987 722.264,60.278 721.51,60.098 720.907,60.628 720.397,61.117 
				719.602,61.354 718.843,61.762 718.99,62.736 718.93,63.499 718.251,64.053 717.952,64.776 			"/>
		</g>
		<g>
			<path fill-rule="evenodd" clip-rule="evenodd" fill="#FFFFFF" d="M517.015,120.293l0.724-0.895l-0.887-0.614l0.32-0.747
				l-0.518-0.698l0.263-0.727l0.638-0.707l-0.621-0.728l0.169-0.709l0.368-0.692l-0.309-0.732l0.252-0.699l0.064-0.712l-0.465-0.741
				l0.079-0.707l0.166-0.704l0.011-0.711l0.611-0.716l-0.398-0.71l0.344-0.74l-0.324-0.697l-0.443-0.661l0.312-0.777l-0.019-0.74
				l-0.187-0.706l-0.594-0.567l-0.038-0.754l-0.669-0.482l0.18-0.899l-0.412-0.608l-0.802-0.396l0.264-0.741l0.606-0.628
				l-0.463-0.821l0.274-0.69l-0.039-0.742l0.226-0.703l0.549-0.659l-0.292-0.779l-0.271-0.776l0.072-0.73l0.725-0.635l0.28-0.694
				l-0.322-0.789l0.497-0.653l-0.25-0.784l0.354-0.667l0.428-0.639l-0.571-0.89l0.566-0.598l0.461-0.603l0.231-0.671l0.202-0.705
				l-0.282-0.832l0.78-0.547l-0.346-0.805l-0.244-0.751l0.683-0.632l0.224-0.702l-0.634-0.769l0.803-0.662l-0.566-0.754l0.653-0.667
				l-0.096-0.719l0.269-0.677l0.063-0.696l-0.39-0.798l0.265-0.676l0.394-0.602l0.416-0.553l0.243-0.719l0.966-0.143l0.357-0.633
				l-0.204-1.005l0.56-0.472l0.663-0.435l0.27-0.668l0.145-0.715l0.475-0.578l-0.27-0.829l0.982-0.481l-0.546-0.834l0.021-0.694
				l0.064-0.689l-0.03-0.69l-0.195-0.672l0.227-0.767l0.354-0.718l0.831-0.133l0.752-0.24l0.004-1.035l0.527-0.475l0.887-0.119
				l0.249-0.758l0.558-0.453l0.366-0.638l0.973-0.058l0.383-0.623l0.442-0.564l0.292-0.709l0.56-0.451l0.286-0.719l0.955-0.051
				l0.053-0.965l0.679-0.322l0.565-0.438l0.204-0.85l1.175,0.282l0.015-1.111l0.654-0.329l0.662-0.306l0.543-0.476l0.471-0.607
				l0.999,0.297l0.296-0.956l0.931,0.288l0.438-0.776l0.595-0.474l0.701-0.211l0.729-0.098l0.708-0.155l0.834,0.543l0.696-0.053
				l0.655-0.402l0.691-0.337l0.547-0.215l0.983,0.065l0.272-0.707l0.579-0.453l0.104-0.879l0.493-0.537l0.821-0.214l0.324-0.704
				l0.387-0.651l0.952-0.028l0.314-0.738l0.461-0.581l0.566-0.457l0.799-0.15l0.534-0.491l0.667-0.306l0.384-0.715l0.402-0.712
				l1.053,0.3l0.358-0.797l0.74-0.169l0.423-0.722l0.723-0.195l0.48-0.647l0.808-0.023l0.55-0.527l0.796-0.024l0.478-0.701
				l0.96,0.366l0.557-0.53l0.793,0.021l0.559-0.542l0.649-0.33l0.813,0.099l0.498-0.734l0.853,0.225l0.498-0.765l0.6-0.498
				l0.725-0.141l0.91,0.431l0.504-0.755l0.807,0.389l0.627-0.431l0.726,0.19l0.704,0.084l0.678-0.254l0.684-0.23l0.664-0.415
				l0.747,0.461l0.701-0.099l0.622-0.511l0.766,0.224l0.71-0.69l0.725,0.696l0.726,0.02l0.771-0.496l0.731-0.102l0.706,0.31
				l0.716-0.029l0.692-0.155l0.845,0.38l0.751-0.211l0.224-1.08l0.899,0.021l0.11-0.914l1.074,0.171l0.571-0.295l0.55-0.896
				l0.772,0.356l0.751-0.114l0.523,0.811l0.976-0.466l0.084,1.128l0.573,0.44l0.764,0.155l0.752,0.078l0.706,0.035l0.52,0.575
				l0.625,0.544l0.733,0.057l0.678-0.812l0.732,0.12l0.715-0.251l0.727-0.01l0.729,0.825l0.712,0.094l0.724-0.398l0.703,0.375
				l0.73-0.3l0.724-0.047l0.724-0.018l0.659,0.642l0.766-0.424l0.65,0.566l0.777-0.397l0.722,0.043l0.772-0.237l0.555,0.971
				l0.85-0.602l0.61,0.605l0.668,0.295l0.797-0.243l0.64,0.403l0.685,0.219l0.783-0.126l0.682,0.237l0.681,0.237l0.731,0.082
				l0.649,0.334l0.555,0.593l0.811-0.128l0.599,0.453l0.629,0.364l0.786-0.028l0.672,0.261l0.672,0.264l0.429,0.812l0.673,0.246
				l0.79,0.004l0.429,0.765l0.955-0.318l0.38,0.842l0.62,0.359l0.821-0.021l0.677,0.261l0.634,0.343l0.739,0.156l0.561,0.471
				l0.55,0.485l0.672,0.28l0.32,0.854l0.638,0.33l0.81,0.063l0.623,0.358l0.585,0.419l0.771,0.14l0.417,0.663l0.313,0.803
				l1.059-0.263l0.488,0.553l0.165,0.99l0.818,0.094l0.354,0.718l0.644,0.332l0.645,0.334l0.727,0.235l0.564,0.442l0.362,0.687
				l0.837,0.114l0.548,0.466l0.535,0.479l0.089,0.979l0.946,0.019l0.596,0.414l0.265,0.765l0.717,0.288l0.279,0.738l0.308,0.699
				l0.82,0.199l0.447,0.563l0.793,0.245l-0.2,1.144l1.05,0.03l0.44,0.57l0.551,0.479l0.036,0.893l0.922,0.188l0.264,0.705
				l0.003,0.887l0.641,0.418l0.614,0.445l-0.149,0.963l1.129,0.115l-0.047,0.88l0.52,0.521l0.174,0.727l0.179,0.717l0.231,0.681
				l0.606,0.484l0.621,0.488l0.409,0.602l-0.277,0.915l0.731,0.459l0.052,0.754l0.566,0.546l0.189,0.697l0.13,0.715l-0.011,0.758
				l0.778,0.503l-0.378,0.86l0.658,0.558l-0.091,0.764l0.399,0.641l-0.359,0.811l0.427,0.641l0.383,0.659l0.008,0.728l-0.372,0.777
				l0.297,0.677l-0.249,0.742l0.938,0.629l-0.72,0.775l0.556,0.683l0.039,0.716l-0.04,0.721l-0.226,0.719l-0.25,0.718l-0.067,0.784
				l0.168,0.765l0.897,0.525l0.158,0.699L661,86.311l0.471,0.586l0.46,0.586l0.123,0.75l0.069,0.748l0.158,0.684l0.229,0.659
				l0.512,0.673l-0.175,0.737l0.065,0.733l0.059,0.737l-0.542,0.686l-0.031,0.722l0.306,0.779l-0.094,0.728l-0.703,0.604
				l0.155,0.776l0.21,0.801l-0.784,0.556l-0.019,0.747l0.44,0.878l-0.258,0.689l-0.481,0.622l-0.433,0.635l0.341,0.856l-0.553,0.6
				l-0.662,0.578l-0.185,0.711l-0.182,0.714l0.705,0.909l-0.371,0.66l-0.472,0.651l-0.483,0.642l0.104,0.753l-0.431,0.641
				l0.551,0.871l-0.432,0.638l0.231,0.816l-1.079,0.437l0.622,0.949l-0.338,0.654l-0.022,0.765l-0.907,0.441l0.307,0.894
				l-1.069,0.349l0.551,1.014l-0.394,0.623l-0.782,0.439l-0.404,0.604l-0.147,0.728l0.203,0.914l-0.525,0.547l-0.53,0.537
				l-0.7,0.436l0.047,0.855l-0.367,0.623l-0.288,0.672l-0.391,0.61l-0.908,0.278l-0.045,0.829l-0.43,0.581l-0.218,0.726
				l-0.146,0.781l-1,0.179l-0.574,0.473l0.272,1.098l-0.582,0.471l-0.396,0.609l-0.924,0.198l0.105,1.003l-0.556,0.483l-0.735,0.335
				l-0.649,0.398l-0.445,0.569l-0.588,0.447l0.054,0.995l-0.809,0.255l-0.077,0.894l-0.809,0.247l-0.04,0.931l-1.145-0.063
				l0.034,1.022l-0.432,0.598l-1.076-0.046l-0.174,0.854l-0.761,0.251l-0.127,0.932l-0.462,0.579l-1.146-0.205l-0.589,0.415
				l-0.303,0.768l-0.335,0.743l-0.53,0.508l-0.685,0.306l-0.537,0.502l-0.932-0.061l-0.617,0.374l-0.376,0.74l-0.843,0.028
				l-0.439,0.66l-0.701,0.237l-0.392,0.773l-0.773,0.109l-0.611,0.397l-0.836-0.044l-0.511,0.6l-0.683,0.248l-0.429,0.826
				l-0.958-0.388l-0.659,0.289l-0.697,0.195l-0.398,1.035l-0.86-0.255l-0.595,0.531l-0.918-0.541l-0.573,0.63l-0.809-0.234
				l-0.464,0.96l-0.805-0.189l-0.717,0.12l-0.553,0.597l-0.585,0.475l-0.676,0.22l-0.991-0.559l-0.284,1.169l-0.914-0.307
				l-0.591,0.421l-0.406,0.77l-0.98-0.326l-0.602,0.428l-0.462,0.733l-0.654,0.331l-0.839-0.09l-0.533,0.618l-0.935-0.372
				l-0.555,0.579l-0.721,0.148l-0.743,0.062l-0.641,0.379l-0.706,0.162l-0.553,0.769l-0.729,0.122l-0.865-0.572l-0.683,0.258
				l-0.73-0.015l-0.691,0.269l-0.669,0.685l-0.767-0.51l-0.72,0.202l-0.725-0.44l-0.727,0.26l-0.721-0.09l-0.743,0.168l-0.739-0.398
				l-0.686,0.896l-0.734-0.162l-0.762-0.238l-0.671,0.419l-0.729,0.046l-0.724,0.101l-0.636,0.465l-0.914-0.66l-0.613,0.551
				l-0.578,0.668l-0.843-0.334l-0.739,0.048l-0.549,0.823l-0.813-0.262l-0.789-0.228l-0.682,0.281l-0.636,0.621l-0.801-0.505
				l-0.69,0.33l-0.732-0.178l-0.716,0.198l-0.736,0.241l-0.685-0.512l-0.764,0.265l-0.771,0.238l-0.705-0.168l-0.695-0.229
				l-0.61-0.73l-0.695-0.209l-0.853,0.678l-0.735,0.009l-0.628-0.599l-0.753,0.098l-0.589-0.776l-0.815,0.418l-0.729-0.044
				l-0.757,0.093l-0.7-0.193l-0.714-0.127l-0.596-0.671l-0.826,0.388l-0.697-0.2l-0.646-0.426l-0.783,0.162l-0.518-0.926
				l-0.862,0.469l-0.705-0.171l-0.642-0.407l-0.776,0.095l-0.514-0.848l-0.785,0.122l-0.65-0.349l-0.609-0.476l-0.661-0.294
				l-0.723-0.1l-0.624-0.402l-0.965,0.597l-0.561-0.589l-0.548-0.605l-0.872,0.284l-0.709-0.178l-0.624-0.388l-0.733-0.119
				l-0.447-0.803l-0.904,0.274l-0.541-0.564l-0.416-0.821l-1.076,0.595l-0.355-0.924l-0.927,0.242l-0.518-0.579l-0.639-0.342
				l-0.449-0.683l-0.87,0.078l-0.627-0.362l-0.64-0.342l-0.495-0.579l-0.332-0.818l-1.013,0.24l-0.624-0.37l-0.162-1.036
				l-0.614-0.371l-0.739-0.201l-0.795-0.143l-0.113-1.033l-0.948,0.042l-0.317-0.752l-0.779-0.189l-0.529-0.491l-0.55-0.468
				l-0.308-0.73l-0.729-0.273l-0.372-0.654l-0.78-0.239l-0.241-0.773l-0.945-0.1l-0.415-0.606l-0.192-0.811l-0.776-0.283
				l-0.585-0.46l-0.258-0.731l-0.431-0.584l-0.523-0.513l-0.02-0.895l-0.871-0.255l-0.488-0.543l0.199-1.022l-0.456-0.557
				l-0.781-0.345l-0.16-0.757l-0.277-0.676l-0.53-0.518l-0.741-0.395l-0.172-0.741l-0.282-0.672l-0.714-0.424l0.056-0.864
				l-0.184-0.724l-0.69-0.442l-0.056-0.788l-0.193-0.712l-0.783-0.406l-0.074-0.775l0.007-0.814l-0.647-0.483l-0.757-0.43
				l0.349-0.98l-0.529-0.549l-0.635-0.497l-0.003-0.808L517.015,120.293z M538.42,86.605l-0.804,0.5l0.812,0.717l-0.379,0.717
				l0.485,0.718l-0.275,0.718l-0.634,0.718l0.642,0.718l-0.139,0.718l-0.331,0.718l0.354,0.718l-0.208,0.718l-0.019,0.718
				l0.508,0.718l-0.044,0.718l-0.14,0.718l0.004,0.718l-0.611,0.718l0.381,0.717l-0.383,0.717l0.262,0.717l0.356,0.717l-0.436,0.716
				l-0.139,0.716l-0.002,0.716l0.391,0.716l-0.233,0.715l0.412,0.714l-0.571,0.714l0.046,0.719l0.459,0.717l-0.115,0.715
				l-0.476,0.715l0.6,0.713l-0.158,0.711l0.153,0.716l-0.12,0.711l-0.45,0.708l0.396,0.709l0.372,0.647l0.234,0.621l-0.37,0.876
				l0.074,0.738l0.662,0.522l-0.098,0.806l0.629,0.521l0.081,0.743l0.041,0.77l1,0.325l-0.032,0.807l0.097,0.755l0.348,0.63
				l0.39,0.606l0.799,0.359l-0.161,0.938l0.803,0.334l0.694,0.387l-0.08,0.929l0.304,0.669l0.982,0.139l-0.136,1.03l0.932,0.144
				l0.027,0.935l0.606,0.415l0.37,0.646l0.544,0.473l0.888,0.092l0.467,0.541l0.415,0.613l0.591,0.403l0.731,0.212l0.182,0.958
				l0.644,0.337l1.001-0.224l0.479,0.56l0.425,0.672l0.653,0.296l0.703,0.198l0.523,0.535l0.866-0.14l0.281,1.058l0.938-0.33
				l0.672,0.229l0.64,0.302l0.664,0.25l0.709,0.129l0.549,0.562l0.774-0.059l0.532,0.652l0.648,0.55l0.782-0.747l0.719,0.023
				l0.724,0.533l0.719-0.362l0.722,0.076l0.712-0.187l0.726,0.656l0.715-0.161l0.718-0.076l0.719-0.286l0.721,0.083l0.717-0.303
				l0.72,0.639l0.722-0.652l0.722,0.237l0.721,0.066l0.729-0.492l0.71,0.988l0.74-0.839l0.724,0.156l0.725,0.163l0.729-0.063
				l0.732-0.238l0.708,0.776l0.734-0.693l0.726,0.667l0.721-0.542l0.72-0.24l0.721,0.005l0.727,0.083l0.722-0.016l0.767,0.654
				l0.732,0.005l0.7-0.378l0.697-0.348l0.695-0.3l0.816,0.762l0.694-0.327l0.742,0.047l0.646-0.608l0.715-0.117l0.789,0.314
				l0.669-0.395l0.674-0.337l0.832,0.468l0.642-0.491l0.678-0.299l0.706-0.162l0.793,0.191l0.687-0.25l0.74-0.047l0.605-0.547
				l0.595-0.553l0.927,0.584l0.554-0.679l0.761,0.005l0.562-0.618l0.743-0.06l0.571-0.562l0.797,0.089l0.603-0.461l0.791,0.05
				l0.519-0.664l0.941,0.412l0.575-0.517l0.797,0.025l0.556-0.552l0.639-0.351l0.819,0.057l0.451-0.768l0.871,0.15l0.417-0.811
				l0.531-0.563l0.69-0.231l0.959,0.293l0.381-0.851l0.902,0.163l0.495-0.617l0.776-0.093l0.715-0.212l0.541-0.526l0.548-0.515
				l0.447-0.676l0.9,0.079l0.617-0.396l0.396-0.729l0.789-0.134l0.221-0.957l0.987,0.125l0.571-0.459l0.234-0.885l0.469-0.566
				l0.738-0.241l0.545-0.478l0.493-0.534l0.92-0.076l0.581-0.453l-0.072-1.105l0.905-0.128l0.071-0.927l1.086,0.008l0.451-0.577
				l-0.111-1.048l0.765-0.306l0.306-0.682l0.97-0.17l-0.215-1.066l1.148-0.063l0.408-0.607l0.157-0.775l0.146-0.773l0.179-0.743
				l0.722-0.403l0.739-0.405l0.374-0.63l-0.334-1.026l0.488-0.554l0.146-0.741l0.34-0.636l1.071-0.272l0.406-0.617l-0.058-0.838
				l0.627-0.513l-0.004-0.806l0.209-0.706l0.22-0.7l0.816-0.457l-0.188-0.866l0.72-0.495l-0.201-0.861l0.188-0.702l-0.115-0.792
				l1.027-0.448l-0.556-0.885l0.594-0.616l0.231-0.712l-0.386-0.745l0.209-0.727l-0.056-0.729l-0.394-0.722l0.11-0.772l0.23-0.734
				l0.17-0.763l0.463-0.613l0.711-0.437l0.052-0.836l0.547-0.535l0.407-0.635l-0.107-0.787l0.044-0.692l-0.104-0.684l0.423-0.778
				l-0.174-0.649l-0.434-0.613l0.396-0.746l-0.797-0.566l0.476-0.756l-0.07-0.679l-0.509-0.598l-0.227-0.689l-0.161-0.7
				l-0.396-0.636l-0.071-0.72l-0.084-0.724l-0.335-0.642l0.266-0.876l-0.334-0.652l-0.645-0.505l-0.348-0.631l-0.305-0.651
				l-0.619-0.474l-0.093-0.775l0.027-0.871l-1.083-0.15l-0.268-0.683l0.148-0.999l-0.763-0.332l-0.162-0.793l-0.556-0.484
				l-0.567-0.468l-0.673-0.369l-0.487-0.528l-0.267-0.734l-0.82-0.214l-0.498-0.515l-0.497-0.519l-0.036-0.986l-0.949-0.06
				l-0.586-0.427l-0.263-0.769l-0.724-0.283l-0.3-0.733l-0.341-0.693l-0.835-0.161l-0.484-0.537l-0.812-0.186l0.088-1.161
				l-1.051,0.092l-0.517-0.497l-0.622-0.372l-0.222-0.867l-0.938,0.034l-0.437-0.606l-0.272-0.85l-0.751-0.188l-0.734-0.191
				l-0.253-0.947l-1.072,0.383l-0.367-0.798l-0.715-0.189l-0.543-0.52l-0.57-0.489l-0.619-0.405l-0.791,0.017L617.043,52
				l-0.708-0.125l-0.504-0.814l-0.821,0.281l-0.644-0.4l-0.765,0.178l-0.692-0.185l-0.692-0.212l-0.69-0.322l-0.754,0.539
				l-0.695-0.633l-0.718,0.483l-0.724-0.261l-0.703,0.28l-0.767-0.455l-0.68,0.375l-0.69,0.343l-0.737-0.042l-0.735-0.448
				l-0.705,0.177l-0.596-0.442l-1,0.515l-0.24-1.035l-0.883,0.123l-0.654-0.293l-0.645-0.322l-0.608-0.457l-0.641-0.44l-0.703-0.267
				l-0.744-0.084l-0.812,0.635l-0.702-0.146l-0.711-0.392l-0.724,0.175l-0.711,0.188l-0.738-0.145l-0.752-0.13l-0.732,0.051
				l-0.704,0.213l-0.616,0.582l-0.746-0.021l-0.681,0.25l-0.671,0.279l-0.827-0.271l-0.682,0.249l-0.578,0.6l-0.687,0.232
				l-0.855-0.349l-0.607,0.502l-0.594,0.567l-0.858-0.418l-0.656,0.342l-0.558,0.803l-0.729,0.09l-0.771-0.156l-0.75-0.128
				l-0.654,0.646l-0.76-0.307l-0.782-0.409l-0.743,0.13l-0.731,0.176l-0.416,1.068l-0.736,0.044l-0.798-0.012l-0.819,0.024
				l-0.512,0.586l-0.772,0.152l-0.194,1.018l-0.74,0.201l-0.336,0.779l-1.122-0.316l-0.083,1.134l-0.67,0.318l-0.491,0.591
				l-0.983-0.229l-0.356,0.876l-1.01-0.492l-0.231,1.018l-0.363,0.446l-0.819,0.376l-0.439,0.599l-0.164,0.737l0.214,0.915
				l-0.506,0.567l-0.505,0.57l-0.675,0.488l0.102,0.857l-0.328,0.653l-0.254,0.694l-0.367,0.635l-0.902,0.298l-0.051,0.827
				l-0.456,0.563l-0.286,0.708l-0.27,0.769l-1.023-0.013l-0.664,0.301l-0.092,1.131l-0.738,0.231l-0.644,0.388l-0.86-0.285
				l-0.675,0.699l-0.727-0.131l-0.728-0.359l-0.728-0.248l-0.728,0.024l-0.724-0.161l-0.675,0.685l-0.795-0.154l-0.408,0.792
				l-0.836-0.015l-0.231,0.89l-1.121-0.211l0.004,1.024l-0.366,0.595l-1.065,0.114l0.026,0.876l-0.65,0.466l0.218,0.907
				l-0.179,0.694l-1.113,0.313l-0.329,0.652l0.115,0.816l0.088,0.806l-0.195,0.701l-0.433,0.606l-0.215,0.699l-0.846,0.384
				l-0.377,0.592l-0.037,0.816l-0.768,0.308l-0.216,0.742l-0.62,0.371l-0.277,0.816L538.42,86.605z"/>
		</g>
		<g>
			<path fill-rule="evenodd" clip-rule="evenodd" fill="#FFFFFF" d="M416.037,25.747l0.47-0.615l0.782,0.046l0.681-0.222
				l0.551-0.591l0.66-0.286l0.865,0.359l0.582-0.525l0.762,0.092l0.602-0.519l0.796,0.32l0.624-0.515l0.678-0.358l0.764,0.532
				l0.695-0.571l0.729,0.067l0.636,0.646l0.74-0.156l0.539,0.612l0.832-0.23l0.669,0.26l0.778,0.106l0.199,0.984l0.724,0.202
				l0.27,0.772l0.681,0.285l0.819,0.167l0.657,0.356l0.005,0.982l0.604,0.401l0.172,0.792l0.474,0.521l0.749,0.289l0.479,0.52
				l0.504,0.509l0.221,0.748l0.671,0.386l0.637,0.421l0.497,0.535l0.349,0.651l0.448,0.573l0.521,0.522l0.146,0.79l0.095,0.82
				l1,0.19l0.384,0.619l0.17,0.761l0.73,0.392l-0.219,1.002l1.034,0.206l-0.146,0.944l0.962,0.265l-0.089,0.9l0.49,0.554
				l0.648,0.465l-0.274,0.994l0.998,0.27l0.214,0.714l-0.267,0.974l1.067,0.245l-0.305,0.987l0.553,0.527l0.479,0.567l0.541,0.537
				l-0.18,0.911l0.313,0.653l0.296,0.662l0.946,0.333l0.523,0.55l-0.126,0.875l0.604,0.509l-0.19,0.906l0.311,0.656l0.649,0.486
				l-0.159,0.891l1.097,0.264l0.059,0.781l0.633,0.494l-0.131,0.877l0.543,0.539l-0.228,0.929l0.279,0.673l1.173,0.215l-0.202,0.92
				l0.145,0.742l0.722,0.442l0.618,0.494l0.075,0.781l0.362,0.627l0.498,0.555l0.091,0.777l0.319,0.637l0.487,0.542l0.421,0.58
				l0.451,0.564l-0.28,0.974l0.768,0.386l0.553,0.508l0.071,0.777l0.757,0.395l-0.045,0.839l0.595,0.488l-0.337,0.994l0.609,0.48
				l0.895,0.332l0.154,0.726l-0.067,0.84l0.433,0.579l0.021,0.787l0.481,0.555l0.12,0.731l1.034,0.296l-0.293,0.925l0.507,0.549
				l0.509,0.555l0.356,0.625l-0.124,0.828l0.321,0.637l0.29,0.65l0.106,0.721l0.841,0.449l-0.376,0.894l0.215,0.676l0.737,0.508
				l-0.101,0.809l0.096,0.765l0.389,0.642l0.693,0.465l-0.193,0.967l0.921,0.291l0.318,0.667l0.732,0.358l0.447,0.565l0.407,0.601
				l-0.051,1.033l1.043,0.026l0.047,0.981l0.497,0.548l0.492,0.555l0.672,0.358l0.814,0.194l0.558,0.476l0.494,0.55l0.637,0.233
				l0.469,0.914l0.855-0.745l0.604,0.545l0.684,0.169l0.591,0.488l0.891-0.515l0.556,0.588l0.616,0.374l0.711,0.092l0.774-0.104
				l0.613,0.387l0.753-0.068l0.582,0.499l0.765-0.156l0.457,1.102l0.837-0.541l0.713-0.064l0.663,0.255l0.66,0.474l0.725-0.587
				l0.691,0.37l0.732,0.376l0.634-0.359l-0.316,0.624l-0.267,0.657l0.051,0.745l-0.253,0.665l-0.496,0.542l-0.25,0.656l-0.189,0.724
				l-0.794,0.266l0.007,0.967l-0.426,0.619l-0.529,0.521l-0.732,0.243l-0.957-0.139l-0.361,0.754l-0.543,0.491l-0.837-0.013
				l-0.277,0.971l-0.88-0.095l-0.612,0.379l-0.463,0.613l-0.678,0.263l-0.776,0.163l-0.181,0.902l-1.033,0.121l0.043,0.857
				l0.5,0.732l-0.512,0.723l0.302,0.684l0.453,0.617l0.108,0.688l-0.397,0.89l0.652,0.515l0.695,0.479l-0.314,0.892l0.252,0.659
				l0.691,0.508l-0.277,0.869l0.549,0.561l0.396,0.616l-0.009,0.771l0.195,0.692l0.337,0.64l0.024,0.758l0.064,0.743l0.389,0.619
				l0.7,0.5l0.012,0.764l0.086,0.735l0.594,0.539l0.261,0.668l0.365,0.627l0.083,0.737l0.002,0.771l0.589,0.538l0.454,0.591
				l0.033,0.758l-0.007,0.775l0.567,0.545l0.217,0.686l-0.158,0.835l0.671,0.504l-0.012,0.778l0.372,0.623l0.568,0.543l-0.146,0.834
				l0.583,0.535l0.594,0.532l-0.188,0.853l0.845,0.427l0.262,0.667l0.18,0.701l0.16,0.71l0.179,0.701l0.323,0.641l0.151,0.715
				l0.463,0.583l-0.365,0.934l1.026,0.342l0.189,0.699l-0.08,0.813l0.794,0.438l-0.283,0.902l0.497,0.566l0.484,0.571l-0.362,0.938
				l1.052,0.324l0.125,0.728l-0.3,0.914l0.304,0.65l1.054,0.319l-0.056,0.809l0.046,0.764l0.137,0.726l0.448,0.583l0.929,0.448
				l0.136,0.742l-0.047,0.775l-0.203,0.776l0.447,0.676l-0.355,0.756l0.664,0.717l-0.606,0.717l0.447,0.77l-0.287,0.707l0.074,0.765
				l-0.63,0.605l-0.053,0.738l-0.41,0.625l0.3,0.906l-0.437,0.621l-0.437,0.607l-0.717,0.429l-0.421,0.579l0.159,1.004l-0.565,0.504
				l-0.705,0.364l-0.621,0.41l-0.085,0.958l-0.623,0.421l-0.785,0.2l-0.742,0.207l-0.199,1.02l-0.798,0.112l-0.501,0.633
				l-0.993-0.386l-0.664,0.255l-0.713,0.11l-0.569,0.728l-0.339-0.723l-0.919-0.08l-0.457-0.544l-0.218-0.781l-0.293-0.704
				l-0.695-0.303l-0.416-0.583l-0.987-0.014l-0.1-0.897l-0.757-0.245l0.022-1.024l-1.104,0.1l-0.312-0.681l-0.06-0.936l-1.078,0.076
				l-0.349-0.659l-0.549-0.459l-0.087-0.916l-0.754-0.259l-0.342-0.598l-0.619-0.494l0.155-0.812l-0.035-0.756l-0.732-0.493
				l-0.562-0.552l-0.326-0.645l0.469-0.957l-0.46-0.594l-0.466-0.594l-0.288-0.663l-0.338-0.646l-0.157-0.709l-0.104-0.728
				l-0.039-0.752l-0.141-0.712l-0.994-0.425l-0.113-0.729l0.121-0.8l-0.028-0.748l-0.271-0.672l-0.194-0.697l0.017-0.748
				l-0.854-0.54l-0.08-0.73l0.616-0.865l-0.665-0.61l0.187-0.765l-0.675-0.637l0.616-0.805l-0.404-0.685l-0.018-0.726l-0.604-0.637
				l0.709-0.861l-0.119-0.728l-0.821-0.542l-0.347-0.643l0.557-0.935l-0.479-0.608l-0.411-0.619l0.016-0.787l-0.55-0.555
				l-0.001-0.791l-1.056-0.31l0.531-1.047l-0.759-0.439l-0.525-0.546l-0.228-0.691l-0.154-0.728l-0.406-0.603l-0.26-0.676
				l-0.252-0.677l-0.192-0.702l-0.485-0.573l-0.676-0.504l-0.145-0.727l-0.233-0.69l0.271-0.853l-0.078-0.721l-0.558-0.589
				l0.086-0.757l-0.048-0.713l-0.769-0.609l0.171-0.755l-0.225-0.684l-0.106-0.732l-0.687-0.412l-0.187-0.761l-0.657-0.373
				l-0.246-0.829l-0.622-0.412l-0.805-0.189l-0.186-0.916l-1.088,0.052l-0.241-0.811l-0.071-1.089l-0.95,0.456l-0.714-0.13
				l-0.712,0.336l-0.717-0.504l-0.708,0.656l-0.723-0.801l-0.716-0.017l-0.704,0.817l-0.721-0.573l-0.71,0.258l-0.711,0.249
				l-0.713,0.029l-0.718-0.604l-0.704,0.78l-0.717-0.75l-0.708,0.647l-0.712-0.573l-0.709,0.06l-0.71-0.03l-0.706-0.274
				l-0.713,0.256l-0.712,0.243l-0.707-0.186l-0.7-0.268l-0.729,0.625l-0.691-0.506l-0.693-0.314l-0.731,0.475l-0.737,0.414
				l-0.715-0.063l-0.715,0.033l-0.714,0.046l-0.803-0.866l-0.729,0.136l-0.604,0.936l-0.689,0.212l-0.768-0.182l-0.74,0.007
				l-0.724,0.108l-0.751,0.012l-0.601,0.543l-0.645,0.367l-0.818-0.168l-0.586,0.523l-0.729,0.117l-0.573,0.532l-0.687,0.229
				l-0.637,0.356l-0.997-0.521l-0.375,0.99l-0.977-0.442l-0.371,0.995l-0.597,0.375l-0.607,0.376l-0.788,0.084l-0.754,0.136
				l-0.71,0.173l-0.615,0.353l-0.541,0.869l-0.816-0.736l-0.684,0.084l-0.604-0.341l-0.728-0.089l-0.615-0.748l-0.854,0.367
				l-0.585,0.311l-0.312,1.093l-0.694,0.231l-0.786-0.157l-0.765-0.205l-0.62,0.493l-0.656,0.361l-0.738-0.142l-0.717-0.002
				l-0.657,0.32l-0.749-0.114l-0.548,0.659l-0.622,0.282l-0.755-0.042l-0.502,0.52l-0.688,0.183l-0.582,0.381l-0.71,0.294
				l0.02,0.912l-0.379,0.553l-0.62,0.485l-0.748-0.316l-0.697,0.43l-0.765-0.399l-0.693,0.267l-0.717,0.114l-0.748,0.035
				l-0.579,0.546l-0.476,0.705l-0.982-0.438l-0.467,0.669l-0.787,0.066l-0.311,0.863l-0.59,0.389l-0.931-0.1l-0.175,0.978
				l-0.566,0.423l-1.04-0.19l-0.409,0.634l-0.561,0.443l-0.437,0.604l-0.465,0.565l-0.474,0.57l-0.725,0.211l-0.591,0.403
				l-0.909-0.162l-0.413,0.72l-0.795-0.034l-0.517,0.576l-0.616,0.39l-0.736,0.021l-0.726-0.031l-0.598,0.713l-0.731,0.028
				l-0.724-0.705l-0.741,0.779l-0.638-0.662l-0.624-0.361l-0.782,0.577l-0.436,0.395l-0.741,0.065l-0.535,0.435l-0.589,0.368
				l-0.302,0.665l-0.861,0.168l-0.38,0.604l-0.122,0.751l-0.941,0.289l-0.073,0.766l-0.478,0.576l0.563,0.958l-0.278,0.635
				l-0.376,0.609l-0.205,0.666l-0.734,0.515l0.289,0.824l-0.284,0.648l-0.66,0.508l-0.281,0.629l0.016,0.755l0.252,0.891
				l-0.652,0.466l-0.429,0.562l-0.608,0.441l-0.364,0.584l-0.412,0.549l-0.543,0.444l-0.3,0.646l-0.066,0.907l-0.57,0.5
				l-0.157,0.759l-0.208,0.71l-1.027,0.358l0.118,0.854l-0.292,0.688l-0.191,0.724l0.03,0.782l-0.859,0.544l0.452,0.866
				l-0.776,0.531l0.388,0.87l-0.458,0.613l-0.246,0.678l-0.507,0.579l-0.004,0.767l-0.728,0.475l-0.167,0.701l-0.325,0.633
				l0.097,0.844l-0.436,0.585l-0.417,0.589l-0.494,0.539l-0.144,0.748l-0.745,0.368l-0.215,0.711l-0.189,0.741l-0.362,0.626
				l-0.71,0.359l-0.086,0.852l-0.83,0.245l-0.514,0.5l-0.386,0.609l-0.272,0.726l-0.354,0.662l-0.773,0.252l-0.327,0.693
				l-0.475,0.554l-0.74,0.266l-0.647,0.521l-0.745-0.567l-0.719,0.177l-0.747,0.005l-0.738-0.127l-0.291-1.041l-0.804,0.022
				l-0.564-0.435l-0.612-0.357l-0.606-0.381l-0.55-0.529l-0.929,0.404l-0.679-0.047l-0.605-0.537l-0.36-0.685l0.283-0.741
				l0.149-0.754l-0.942-0.521l-0.179-0.665l0.331-0.834l-0.033-0.745l-0.444-0.595l-0.587-0.521l-0.323-0.626l-0.342-0.615
				l-0.414-0.577l-0.211-0.681l-0.006-0.797l-0.713-0.416l-0.268-0.659l-0.085-0.766l-0.611-0.476l0.366-0.702l0.218-0.462
				l0.721-0.26l0.369-0.699l0.709-0.289l0.209-0.854l0.69-0.316l0.23-0.799l1.008-0.016l0.542-0.492l-0.064-1.039l0.666-0.371
				l0.926-0.171l0.369-0.643l0.438-0.585l0.08-0.846l0.207-0.734l0.78-0.34l0.088-0.806l0.788-0.358l0.35-0.639l0.145-0.752
				l0.724-0.432l0.016-0.812l0.249-0.683l0.681-0.481l0.46-0.596l0.208-0.709l0.303-0.668l0.166-0.718l0.086-0.743l-0.101-0.796
				l0.291-0.71l0.786-0.381l-0.06-1.04l0.746-0.335l0.988,0.185l0.381-0.808l0.844-0.019l0.314-0.867l1.002-0.055l0.06-0.907
				l-0.083-0.774l0.792-0.556l-0.238-0.874l0.803-0.47l-0.382-1.007l0.86-0.405l0.337-0.664l0.026-0.823l0.968-0.361l0.117-0.781
				l-0.243-0.896l0.446-0.603l0.136-0.716l0.749-0.479l0.111-0.726l0.538-0.554l-0.499-0.979l0.652-0.505l-0.138-0.84l0.389-0.615
				l0.624-0.508l0.63-0.499l-0.367-0.958l0.588-0.517l0.697-0.459l0.351-0.622l-0.108-0.852l-0.058-0.83l0.923-0.336l0.346-0.626
				l0.146-0.73l0.493-0.549l-0.253-0.946l0.898-0.329l-0.238-0.945l0.504-0.542l0.155-0.734l1.162-0.171l0.362-0.616l0.204-0.705
				l-0.187-0.934l0.726-0.406l0.358-0.619l0.197-0.715l0.502-0.535l0.592-0.48l0.126-0.758l0.357-0.62l-0.05-0.866l0.74-0.39
				l0.366-0.616l0.577-0.486l0.218-0.705l0.051-0.808l0.859-0.314l0.386-0.604l-0.122-0.918l0.71-0.404l0.523-0.521l0.572-0.465
				l0.205-0.703l0.593-0.449l-0.266-1.03l0.571-0.46l0.596-0.446l0.577-0.465l0.505-0.52l-0.375-1.077l0.494-0.519l0.96-0.262
				l0.251-0.681l0.025-0.786l0.192-0.688l0.223-0.667l0.359-0.616l0.013-0.729l0.722-0.546l0.25-0.691l-0.197-0.757l-0.366-0.731
				l0.772-0.699l-0.812-0.792l0.79-0.477l-0.064-0.902l0.609-0.463l0.246-0.695l0.449-0.568l0.433-0.58l0.415-0.591l0.487-0.551
				l0.522-0.532l-0.061-0.864l0.86-0.346l0.076-0.783l0.405-0.601l-0.065-0.854l0.779-0.402l0.243-0.687l0.297-0.659l0.6-0.503
				l0.297-0.659l-0.011-0.814l0.204-0.704l0.743-0.437l-0.005-0.807l0.811-0.405l-0.181-0.893l0.362-0.625l0.759-0.433l0.276-0.669
				l0.347-0.634l0.109-0.749l-0.057-0.83l0.831-0.399l0.264-0.673l-0.102-0.853l0.216-0.699l0.371-0.623l0.411-0.603l0.858-0.379
				l-0.303-0.958l1.031-0.289l-0.345-0.983l0.441-0.586l0.356-0.629l0.832-0.379l0.087-0.769l0.062-0.786l0.646-0.471l0.188-0.719
				l0.371-0.62l0.679-0.444l0.337-0.637l0.414-0.591l-0.249-0.984l0.513-0.536l0.506-0.538l0.405-0.598l0.135-0.771l0.464-0.562
				l0.794-0.339l-0.188-0.973l0.479-0.542l0.303-0.656l1.05-0.186l0.377-0.61l0.266-0.68l0.289-0.665l0.376-0.61l0.334-0.635
				l0.405-0.592l-0.194-0.954l0.572-0.491l0.762-0.379l0.507-0.533l-0.177-0.939l0.555-0.504l0.097-0.776l0.877-0.314l0.186-0.723
				l0.481-0.549l0.162-0.738l0.071-0.792l0.827-0.344l0.413-0.589l0.357-0.623l0.045-0.808l0.62-0.466l0.421-0.584l0.218-0.705
				l0.163-0.74l0.39-0.604l0.53-0.517l0.646-0.444l-0.104-0.906l0.319-0.646l0.589-0.467l0.808-0.46l-0.185-0.832l-0.268-0.778
				l0.15-0.684l-0.098-0.722l0.512-0.661l-0.244-0.757l0.188-0.708L416.037,25.747z M398.368,110.996l0.733-0.502l0.765,0.213
				l0.726-0.087l0.654-0.49l0.7-0.19l0.832,0.448l0.638-0.486l0.777,0.11l0.608-0.533l0.836,0.256l0.571-0.602l0.591-0.488
				l0.896,0.29l0.448-0.792l0.665-0.271l0.905,0.171l0.491-0.62l0.854-0.015l0.32-0.838l0.547-0.473l0.374-0.678l1.009,0.063
				l0.348-0.698l0.819-0.223l0.264-0.662l0.649-0.445l0.739-0.216l0.727,0.688l0.737-0.155l0.728,0.42l0.739-0.002l0.737-0.38
				l0.733-0.048l0.729-0.105l0.769,0.228l0.686-0.391l0.651-0.392l0.659-0.274l0.705-0.163l0.628-0.346l0.535-0.479l0.779-0.182
				l0.526-0.093l0.675-0.243l0.564,0.413l0.467,0.601l0.806-0.034l0.367,0.947l0.924-0.48l0.514,0.788l0.827-0.526l0.619,0.628
				l0.721-0.091l0.701-0.321l0.745,0.696l0.632-0.804l0.714,0.057l0.832,0.557l0.517-0.957l0.869,0.54l0.625-0.421l0.639-0.353
				l0.613-0.426l0.848,0.345l0.684-0.187l0.688-0.165l0.495-0.86l0.64-0.394l0.813,0.33l0.639-0.445l0.793,0.456l0.691-0.062
				l0.681-0.406l0.697,0.54l0.761-0.816l0.682,0.391l0.393-0.099l0.309-0.379l-0.3-0.697l0.542-0.787l-0.043-0.735l-1.048-0.564
				l0.46-0.816l0.057-0.755l-0.591-0.604l-0.488-0.61l0.091-0.771l-0.236-0.679l-0.391-0.624l0.034-0.774l-0.23-0.683l-0.42-0.606
				l-0.36-0.626l-0.398-0.605l0.348-0.958l-0.748-0.44l-0.531-0.536l-0.049-0.783l-0.752-0.412l0.047-0.843l-0.6-0.488l0.314-1.007
				l-0.627-0.472l-0.91-0.302l-0.19-0.722l0.018-0.848l-0.472-0.557l-0.081-0.791l-0.525-0.524l-0.186-0.727l-1.059-0.211
				l0.204-0.954l-0.561-0.506l-0.563-0.509l-0.418-0.593l0.038-0.841l-0.386-0.607l-0.355-0.625l-0.179-0.713l-0.881-0.373
				l0.291-0.93l-0.273-0.659l-0.777-0.452l0.07-0.804l-0.062-0.739l-0.313-0.645l-0.6-0.56l0.421-0.872l-0.784-0.528l-0.055-0.728
				l-0.515-0.631l-0.078-0.583l-0.415-0.427l0.009-1.015l-1.024-0.035l0.07-0.964l-0.372-0.589l-0.336-0.615l-0.537-0.488
				l-0.712-0.396l-0.376-0.602l-0.289-0.654l-0.587-0.47l0.341-1.055l-1.134-0.102l-0.08-0.806l-0.437-0.559l-0.229-0.749
				l-1.029,0.007l-0.243-0.758l-0.452-0.574l-0.664-0.292l-0.771-0.056l-0.542-0.463l-0.746,0.014l-0.534-0.506l-0.625,0.443
				l-0.921-0.78l-0.492,0.893l-0.57,0.445l-0.688,0.192l-0.831,0.071l-0.153,0.934l-0.762,0.233l-0.797,0.286l-0.23,0.752
				l-0.571,0.504l-0.487,0.572l-0.136,0.768l-0.347,0.642l-0.53,0.553l-0.231,0.701l-0.099,0.765l-0.736,0.449l0.256,0.951
				l-0.211,0.724l-0.322,0.674l-0.604,0.497l-0.947,0.214l-0.098,0.833l-0.389,0.636l-0.818,0.173l-0.148,1.008l-0.9-0.043
				l-0.632,0.335l-0.585,0.522l-0.741,0.038l0.192,0.771l0.907,0.224l-0.062,0.984l0.549,0.322l0.042,0.802l-0.86,0.268l-0.25,0.713
				l-0.16,0.772l-0.482,0.543l-0.959,0.219l-0.057,0.838l-0.017,0.858l-0.921,0.257l-0.397,0.604l0.005,0.863l-0.864,0.308
				l-0.113,0.782l-0.247,0.695l-0.616,0.472l-0.426,0.587l-0.293,0.667l-0.578,0.5l-0.538,0.526l-0.235,0.699l0.06,0.863
				l-0.58,0.504l-0.509,0.546l-0.027,0.807l-0.339,0.639l-0.235,0.692l-0.502,0.554l-0.578,0.517l-0.014,0.803l-0.136,0.739
				l-0.542,0.538l-0.579,0.523l-0.018,0.792l-0.356,0.631l-0.721,0.461l0.093,0.838l-0.573,0.533l-0.195,0.707l0.002,0.791
				l-0.703,0.482l0.024,0.797l0.036,0.799l-0.74,0.471l0.295,0.903l-0.286,0.659l-0.367,0.629l-0.384,0.622l-0.364,0.629
				l-0.215,0.688l-0.389,0.622l-0.07,0.743l-0.91,0.422l0.524,0.786l0.323,0.504l0.159,0.831l0.902,0.238l-0.018,0.968l0.651,0.445
				l0.637,0.452l-0.087,1.023l1.118,0.062l0.328,0.698l-0.038,0.979l0.477,0.573L398.368,110.996z"/>
		</g>
	</g>
</g>
</svg>
